<?xml version="1.0" encoding="UTF-8"?>
<svg xmlns="http://www.w3.org/2000/svg" id="Layer_2" data-name="Layer 2" viewBox="0 0 1170 427.23">
  <defs>
    <style>
      .cls-1 {
        fill: #f16539;
      }

      .cls-1, .cls-2 {
        stroke-width: 0px;
      }

      .cls-2 {
        fill: #fff;
      }
    </style>
  </defs>
  <g id="Layer_2-2" data-name="Layer 2">
    <g>
      <g>
        <g>
          <path class="cls-1" d="m554.11,85.96c4.44,4.44,6.66,9.82,6.66,16.15s-2.22,11.72-6.66,16.16c-4.43,4.43-9.73,6.65-15.91,6.65s-11.68-2.22-16.04-6.65c-4.35-4.44-6.53-9.82-6.53-16.16s2.18-11.71,6.53-16.15c4.36-4.43,9.7-6.65,16.04-6.65s11.48,2.22,15.91,6.65Z"></path>
          <path class="cls-2" d="m595.23,139.55c4.52-.11,8.4,1.45,11.64,4.69,3.36,3.13,5.1,6.95,5.22,11.47.11,4.53-1.39,8.46-4.52,11.82-9.39,9.85-20.34,17.43-32.85,22.76-12.39,5.45-25.43,8.17-39.09,8.17-27.34,0-50.75-9.73-70.21-29.19-19.35-19.35-29.02-42.69-29.02-70.03s9.67-50.86,29.02-70.21C484.87,9.68,508.27,0,535.62,0c13.66,0,26.7,2.67,39.09,8l.88.35c12.16,5.33,22.82,12.8,31.97,22.42,3.13,3.36,4.63,7.3,4.52,11.82-.12,4.64-1.86,8.52-5.22,11.65-3.24,3.13-7.12,4.63-11.64,4.52-4.64-.11-8.52-1.86-11.65-5.22-6.03-6.37-13.09-11.35-21.2-14.94l-.69-.18c-8.23-3.58-16.92-5.39-26.07-5.39-18.31,0-33.89,6.43-46.75,19.29-12.98,12.97-19.47,28.61-19.47,46.92s6.49,33.77,19.47,46.75c12.86,12.86,28.44,19.29,46.75,19.29,9.15,0,17.84-1.74,26.07-5.22,8.34-3.59,15.64-8.69,21.89-15.3,3.13-3.36,7.01-5.1,11.65-5.21Z"></path>
          <path class="cls-1" d="m463.74,167.56c-.56-.59-1.16-1.23-1.74-1.85-.08-.08-.17-.17-.24-.26-.29-.36-.51-.72-.69-1.01-1.15-1.84-1.39-4.09-1.39-6.4,0-9.51,7.71-17.21,17.21-17.21,3.57,0,7.04,1.02,9.79,2.88l2.19,2.28c12.86,12.86,28.44,19.29,46.75,19.29,9.15,0,17.84-1.74,26.07-5.22,8.34-3.59,15.64-8.69,21.89-15.3,3.13-3.36,7.01-5.1,11.65-5.21,4.52-.11,8.4,1.45,11.64,4.69,3.36,3.13,5.1,6.95,5.22,11.47.11,4.53-1.39,8.46-4.52,11.82-9.39,9.85-20.34,17.43-32.85,22.76-12.39,5.45-25.43,8.17-39.09,8.17-27.34,0-50.75-9.73-70.21-29.19"></path>
        </g>
        <g>
          <path class="cls-2" d="m0,71.28c0-2.22.79-4.12,2.39-5.71,1.59-1.59,3.5-2.39,5.71-2.39s4.12.8,5.71,2.39,2.39,3.49,2.39,5.71v16.2h50.55c2.27,0,4.18.8,5.71,2.39,1.59,1.59,2.39,3.53,2.39,5.8s-.8,4.12-2.39,5.71c-1.53,1.59-3.44,2.39-5.71,2.39H16.2v39.55c0,6.99,2.47,12.96,7.42,17.9,5,5,11,7.5,17.99,7.5,4.43,0,8.52-1.05,12.28-3.15,3.86-2.16,6.96-5.12,9.29-8.87,1.19-1.88,2.87-3.07,5.03-3.58,2.16-.51,4.2-.2,6.14.94,1.88,1.19,3.07,2.9,3.58,5.11.51,2.16.17,4.18-1.02,6.05-3.75,6.14-8.78,10.94-15.09,14.41-6.31,3.53-13.04,5.29-20.2,5.29-11.48,0-21.28-4.06-29.41-12.19-8.13-8.07-12.19-17.87-12.19-29.41v-72.03Z"></path>
          <path class="cls-2" d="m109.9,99.92c9.26-8.24,20.09-12.36,32.48-12.36,13.47,0,24.95,4.75,34.44,14.24,9.49,9.49,14.24,20.97,14.24,34.44v40.49c0,2.27-.8,4.21-2.39,5.8-1.59,1.59-3.49,2.38-5.71,2.38s-4.18-.79-5.71-2.38c-1.59-1.59-2.39-3.52-2.39-5.8v-40.49c0-8.98-3.18-16.65-9.55-23.02-6.31-6.31-13.95-9.46-22.93-9.46s-16.62,3.15-22.93,9.46c-6.37,6.37-9.55,14.04-9.55,23.02v40.49c0,2.27-.8,4.21-2.39,5.8-1.53,1.59-3.44,2.38-5.71,2.38s-4.12-.79-5.71-2.38c-1.59-1.59-2.39-3.52-2.39-5.8v-105.45c0-2.22.79-4.12,2.39-5.71,1.59-1.59,3.5-2.39,5.71-2.39s4.18.8,5.71,2.39c1.59,1.59,2.39,3.49,2.39,5.71v28.64Z"></path>
          <path class="cls-2" d="m256.53,87.56c13.47,0,24.95,4.75,34.44,14.24,9.49,9.49,14.24,20.97,14.24,34.44s-4.75,24.86-14.24,34.35c-9.49,9.55-20.97,14.32-34.44,14.32s-24.89-4.77-34.44-14.32c-9.49-9.49-14.24-20.94-14.24-34.35s4.74-24.95,14.24-34.44c9.55-9.49,21.03-14.24,34.44-14.24Zm-22.93,25.66c-6.37,6.37-9.55,14.04-9.55,23.02s3.18,16.57,9.55,22.93c6.31,6.31,13.95,9.46,22.93,9.46s16.62-3.15,22.93-9.46c6.36-6.36,9.55-14.01,9.55-22.93s-3.18-16.65-9.55-23.02c-6.31-6.31-13.95-9.46-22.93-9.46s-16.62,3.15-22.93,9.46Z"></path>
          <path class="cls-2" d="m403.52,95.66c0-2.27.79-4.21,2.39-5.8,1.53-1.53,3.44-2.3,5.71-2.3s4.12.77,5.71,2.3c1.59,1.59,2.39,3.53,2.39,5.8v40.58c0,13.41-4.75,24.86-14.24,34.35-9.49,9.55-20.97,14.32-34.44,14.32s-24.89-4.77-34.44-14.32c-9.49-9.49-14.24-20.94-14.24-34.35v-40.58c0-2.27.79-4.21,2.39-5.8,1.59-1.53,3.5-2.3,5.71-2.3s4.18.77,5.71,2.3,2.39,3.53,2.39,5.8v40.58c0,8.92,3.18,16.57,9.55,22.93,6.31,6.31,13.95,9.46,22.93,9.46s16.62-3.15,22.93-9.46c6.36-6.36,9.55-14.01,9.55-22.93v-40.58Z"></path>
          <path class="cls-2" d="m705.07,159.42c2.22.23,4.04,1.19,5.46,2.9,1.42,1.71,2.05,3.7,1.88,5.97-.23,2.22-1.19,4.03-2.9,5.45-4.94,3.58-10.37,6.34-16.28,8.27-5.91,1.93-12.25,2.9-19.01,2.9-13.98,0-25.74-4.77-35.29-14.32-9.49-9.49-14.24-20.94-14.24-34.35s4.74-24.95,14.24-34.44c9.55-9.49,21.03-14.24,34.44-14.24s24.95,4.75,34.44,14.24c9.49,9.49,14.24,20.97,14.24,34.44,0,2.22-.8,4.12-2.39,5.71s-3.49,2.39-5.71,2.39h-72.03c1.48,5.68,4.32,10.63,8.52,14.83,6.31,6.31,14.23,9.46,23.78,9.46,5,0,9.52-.63,13.55-1.88,4.04-1.25,7.81-3.1,11.34-5.54,1.76-1.42,3.75-2.02,5.97-1.79Zm-63.17-31.37h62.91c-1.48-5.68-4.32-10.63-8.52-14.83-6.31-6.31-13.95-9.46-22.93-9.46s-16.62,3.15-22.93,9.46c-4.21,4.21-7.05,9.15-8.52,14.83Z"></path>
          <path class="cls-2" d="m836.2,176.73c0,2.27-.8,4.21-2.39,5.8-1.59,1.59-3.49,2.38-5.71,2.38s-4.18-.79-5.71-2.38c-1.59-1.59-2.39-3.52-2.39-5.8v-40.49c0-8.98-3.18-16.65-9.55-23.02-6.31-6.31-13.95-9.46-22.93-9.46s-16.62,3.15-22.93,9.46c-6.37,6.37-9.55,14.04-9.55,23.02v40.49c0,2.27-.8,4.21-2.39,5.8-1.53,1.59-3.44,2.38-5.71,2.38s-4.12-.79-5.71-2.38c-1.59-1.59-2.39-3.52-2.39-5.8v-40.49c0-13.47,4.74-24.95,14.24-34.44,9.55-9.49,21.03-14.24,34.44-14.24s24.95,4.75,34.44,14.24c9.49,9.49,14.24,20.97,14.24,34.44v40.49Z"></path>
          <path class="cls-2" d="m853.07,71.28c0-2.22.79-4.12,2.39-5.71s3.5-2.39,5.71-2.39,4.12.8,5.71,2.39,2.39,3.49,2.39,5.71v16.2h50.55c2.27,0,4.18.8,5.71,2.39,1.59,1.59,2.39,3.53,2.39,5.8s-.8,4.12-2.39,5.71c-1.53,1.59-3.44,2.39-5.71,2.39h-50.55v39.55c0,6.99,2.47,12.96,7.42,17.9,5,5,11,7.5,17.99,7.5,4.43,0,8.52-1.05,12.28-3.15,3.86-2.16,6.96-5.12,9.29-8.87,1.19-1.88,2.87-3.07,5.03-3.58,2.16-.51,4.2-.2,6.14.94,1.88,1.19,3.07,2.9,3.58,5.11.51,2.16.17,4.18-1.02,6.05-3.75,6.14-8.78,10.94-15.09,14.41-6.31,3.53-13.04,5.29-20.2,5.29-11.48,0-21.28-4.06-29.41-12.19-8.13-8.07-12.19-17.87-12.19-29.41v-72.03Z"></path>
          <path class="cls-2" d="m1031.88,136.4c-1.59,1.59-3.5,2.39-5.71,2.39s-4.21-.79-5.8-2.39c-1.53-1.59-2.3-3.5-2.3-5.71,0-7.45-2.64-13.78-7.93-19.01-5.23-5.29-11.57-7.93-19.01-7.93s-13.78,2.64-19.01,7.93c-5.28,5.23-7.93,11.57-7.93,19.01v46.12c0,2.22-.77,4.12-2.3,5.71-1.59,1.59-3.53,2.38-5.8,2.38s-4.12-.79-5.71-2.38c-1.59-1.59-2.39-3.5-2.39-5.71v-46.12c0-11.94,4.2-22.11,12.62-30.52,8.41-8.41,18.58-12.62,30.52-12.62s22.11,4.21,30.52,12.62c8.41,8.41,12.62,18.58,12.62,30.52,0,2.22-.8,4.12-2.39,5.71Z"></path>
          <path class="cls-2" d="m1067.37,176.73c0,2.27-.8,4.21-2.39,5.8-1.53,1.59-3.44,2.38-5.71,2.38s-4.12-.79-5.71-2.38c-1.59-1.59-2.39-3.52-2.39-5.8v-81.07c0-2.27.79-4.21,2.39-5.8,1.59-1.53,3.5-2.3,5.71-2.3s4.18.77,5.71,2.3,2.39,3.53,2.39,5.8v81.07Zm-2.3-111.16c1.59,1.59,2.39,3.52,2.39,5.8s-.8,4.21-2.39,5.8c-1.59,1.59-3.5,2.39-5.71,2.39s-4.19-.79-5.76-2.39c-1.56-1.59-2.34-3.52-2.34-5.8s.78-4.2,2.34-5.8,3.48-2.39,5.76-2.39,4.12.8,5.71,2.39Z"></path>
          <path class="cls-2" d="m1161.72,156.01c2.22-.06,4.12.71,5.71,2.3,1.65,1.53,2.5,3.41,2.56,5.63.06,2.22-.68,4.15-2.22,5.8-4.6,4.83-9.97,8.55-16.11,11.17-6.08,2.67-12.48,4.01-19.18,4.01-13.41,0-24.89-4.77-34.44-14.32-9.49-9.49-14.24-20.94-14.24-34.35s4.74-24.95,14.24-34.44c9.55-9.49,21.03-14.24,34.44-14.24,6.71,0,13.1,1.31,19.18,3.92l.43.17c5.97,2.61,11.2,6.28,15.69,11,1.53,1.65,2.27,3.58,2.22,5.8-.06,2.27-.91,4.18-2.56,5.71-1.59,1.53-3.5,2.27-5.71,2.22-2.27-.06-4.18-.91-5.71-2.56-2.95-3.12-6.42-5.57-10.4-7.33l-.34-.09c-4.04-1.76-8.3-2.64-12.79-2.64-8.98,0-16.62,3.15-22.93,9.46-6.37,6.37-9.55,14.04-9.55,23.02s3.18,16.57,9.55,22.93c6.31,6.31,13.95,9.46,22.93,9.46,4.49,0,8.75-.85,12.79-2.56,4.09-1.76,7.67-4.26,10.74-7.5,1.53-1.65,3.44-2.5,5.71-2.56Z"></path>
        </g>
      </g>
      <g>
        <path class="cls-1" d="m379.64,231.36h790.36v81.44c0,5.68-4.61,10.3-10.3,10.3H365.97v-78.06c0-7.55,6.13-13.68,13.68-13.68Z"></path>
        <g>
          <path class="cls-2" d="m416.01,301.72h-6.43v-45.96h14.74c2.21,0,4.31.23,6.3.68,1.99.46,3.73,1.18,5.23,2.18,1.49,1,2.67,2.3,3.54,3.93.87,1.62,1.3,3.6,1.3,5.94,0,3.38-1.04,6.1-3.12,8.18-2.08,2.08-4.76,3.4-8.05,3.96l12.86,21.1h-7.79l-11.69-20.45h-6.88v20.45Zm0-25.84h7.4c1.52,0,2.92-.13,4.22-.39,1.3-.26,2.43-.68,3.41-1.27.97-.58,1.74-1.34,2.31-2.27.56-.93.84-2.09.84-3.48s-.28-2.54-.84-3.47c-.56-.93-1.31-1.68-2.24-2.24-.93-.56-2.02-.96-3.28-1.2-1.26-.24-2.58-.36-3.96-.36h-7.86v14.67Z"></path>
          <path class="cls-2" d="m470.15,296.01h24.02v5.71h-30.45v-45.96h29.47v5.65h-23.05v13.76h21.68v5.52h-21.68v15.32Z"></path>
          <path class="cls-2" d="m539.88,264.26c-.91-1.25-2.14-2.28-3.7-3.08-1.56-.8-3.31-1.2-5.26-1.2-1.04,0-2.09.14-3.15.42-1.06.28-2.02.74-2.89,1.36-.87.63-1.57,1.41-2.11,2.34-.54.93-.81,2.04-.81,3.34s.25,2.31.75,3.15c.5.85,1.17,1.56,2.01,2.14.84.58,1.84,1.08,2.99,1.49,1.15.41,2.37.83,3.67,1.27,1.56.48,3.14,1.02,4.74,1.62,1.6.61,3.05,1.41,4.35,2.4,1.3,1,2.36,2.24,3.18,3.73.82,1.49,1.23,3.39,1.23,5.68s-.44,4.45-1.33,6.2c-.89,1.75-2.07,3.2-3.54,4.35-1.47,1.15-3.17,2-5.1,2.57-1.93.56-3.91.84-5.94.84-2.9,0-5.7-.56-8.41-1.69-2.71-1.12-4.95-2.79-6.72-5l5-4.22c1.08,1.6,2.53,2.9,4.35,3.89,1.82,1,3.79,1.49,5.91,1.49,1.08,0,2.16-.15,3.25-.45,1.08-.3,2.07-.78,2.95-1.43s1.61-1.46,2.18-2.44c.56-.97.84-2.15.84-3.54s-.29-2.54-.88-3.47c-.58-.93-1.38-1.72-2.37-2.37-1-.65-2.15-1.2-3.47-1.65-1.32-.46-2.72-.92-4.19-1.4-1.47-.43-2.92-.96-4.35-1.59-1.43-.63-2.71-1.43-3.83-2.4-1.13-.98-2.03-2.17-2.73-3.6-.69-1.43-1.04-3.2-1.04-5.32,0-2.29.46-4.26,1.4-5.91.93-1.64,2.14-3.01,3.64-4.09,1.49-1.08,3.18-1.87,5.06-2.37,1.88-.5,3.78-.75,5.68-.75,2.68,0,5.19.48,7.53,1.43,2.34.95,4.22,2.23,5.65,3.83l-4.54,4.41Z"></path>
          <path class="cls-2" d="m614.6,278.68c0,3.55-.62,6.81-1.85,9.77-1.23,2.96-2.93,5.52-5.1,7.66-2.17,2.14-4.74,3.81-7.73,5-2.99,1.19-6.23,1.78-9.74,1.78s-6.74-.59-9.7-1.78c-2.97-1.19-5.53-2.86-7.69-5-2.16-2.14-3.85-4.69-5.06-7.66-1.21-2.96-1.82-6.22-1.82-9.77s.61-6.87,1.82-9.84c1.21-2.96,2.9-5.49,5.06-7.59,2.16-2.1,4.73-3.73,7.69-4.9,2.96-1.17,6.2-1.75,9.7-1.75s6.75.59,9.74,1.75c2.99,1.17,5.56,2.8,7.73,4.9,2.16,2.1,3.86,4.63,5.1,7.59,1.23,2.97,1.85,6.25,1.85,9.84Zm-6.95,0c0-2.51-.41-4.88-1.23-7.11-.82-2.23-1.99-4.19-3.51-5.88-1.52-1.69-3.34-3.02-5.49-3.99-2.14-.98-4.56-1.46-7.24-1.46s-5.03.49-7.17,1.46c-2.14.98-3.96,2.3-5.45,3.99-1.49,1.69-2.65,3.64-3.47,5.88-.82,2.23-1.23,4.6-1.23,7.11s.41,4.96,1.23,7.21c.82,2.25,1.99,4.21,3.51,5.88,1.51,1.67,3.33,2.98,5.45,3.93,2.12.95,4.5,1.43,7.14,1.43s5.04-.47,7.21-1.43c2.16-.95,4-2.26,5.52-3.93,1.51-1.66,2.68-3.62,3.51-5.88.82-2.25,1.23-4.65,1.23-7.21Z"></path>
          <path class="cls-2" d="m644.08,296.01h20.52v5.71h-26.94v-45.96h6.43v40.25Z"></path>
          <path class="cls-2" d="m696.86,293.42h.19l13.83-37.66h6.95l-18.05,45.96h-5.97l-17.92-45.96h7.14l13.83,37.66Z"></path>
          <path class="cls-2" d="m743.99,296.01h24.02v5.71h-30.45v-45.96h29.47v5.65h-23.05v13.76h21.68v5.52h-21.68v15.32Z"></path>
          <path class="cls-2" d="m796.78,297.83c0,1.13-.41,2.12-1.23,2.99-.82.87-1.86,1.3-3.12,1.3s-2.24-.42-3.08-1.27c-.84-.85-1.26-1.83-1.26-2.95s.41-2.18,1.23-3.02c.82-.85,1.86-1.27,3.12-1.27s2.29.41,3.12,1.23c.82.82,1.23,1.82,1.23,2.99Z"></path>
          <path class="cls-2" d="m824.56,296.01h24.02v5.71h-30.45v-45.96h29.47v5.65h-23.05v13.76h21.68v5.52h-21.68v15.32Z"></path>
          <path class="cls-2" d="m886.69,293.42h.19l13.83-37.66h6.95l-18.05,45.96h-5.97l-17.92-45.96h7.14l13.83,37.66Z"></path>
          <path class="cls-2" d="m972.97,278.68c0,3.55-.62,6.81-1.85,9.77-1.23,2.96-2.93,5.52-5.1,7.66-2.17,2.14-4.74,3.81-7.73,5-2.99,1.19-6.23,1.78-9.74,1.78s-6.74-.59-9.7-1.78c-2.97-1.19-5.53-2.86-7.69-5-2.16-2.14-3.85-4.69-5.06-7.66-1.21-2.96-1.82-6.22-1.82-9.77s.61-6.87,1.82-9.84c1.21-2.96,2.9-5.49,5.06-7.59,2.16-2.1,4.73-3.73,7.69-4.9,2.96-1.17,6.2-1.75,9.7-1.75s6.75.59,9.74,1.75c2.99,1.17,5.56,2.8,7.73,4.9,2.16,2.1,3.86,4.63,5.1,7.59,1.23,2.97,1.85,6.25,1.85,9.84Zm-6.95,0c0-2.51-.41-4.88-1.23-7.11-.82-2.23-1.99-4.19-3.51-5.88-1.52-1.69-3.34-3.02-5.49-3.99-2.14-.98-4.56-1.46-7.24-1.46s-5.03.49-7.17,1.46c-2.14.98-3.96,2.3-5.45,3.99-1.49,1.69-2.65,3.64-3.47,5.88-.82,2.23-1.23,4.6-1.23,7.11s.41,4.96,1.23,7.21c.82,2.25,1.99,4.21,3.51,5.88,1.51,1.67,3.33,2.98,5.45,3.93,2.12.95,4.5,1.43,7.14,1.43s5.04-.47,7.21-1.43c2.16-.95,4-2.26,5.52-3.93,1.51-1.66,2.68-3.62,3.51-5.88.82-2.25,1.23-4.65,1.23-7.21Z"></path>
          <path class="cls-2" d="m1002.45,296.01h20.52v5.71h-26.94v-45.96h6.43v40.25Z"></path>
          <path class="cls-2" d="m1055.23,293.42h.19l13.83-37.66h6.95l-18.05,45.96h-5.97l-17.92-45.96h7.14l13.83,37.66Z"></path>
          <path class="cls-2" d="m1102.36,296.01h24.02v5.71h-30.45v-45.96h29.47v5.65h-23.05v13.76h21.68v5.52h-21.68v15.32Z"></path>
        </g>
      </g>
      <g>
        <path class="cls-2" d="m451.74,408.34l-6.9-17.79h-22.46l-6.86,17.79h-6.59l21.92-56.27h5.86l21.77,56.27h-6.75Zm-8.85-23.57l-6.55-17.67c-.15-.46-.4-1.21-.75-2.26-.34-1.05-.7-2.13-1.05-3.26-.36-1.12-.65-2.03-.88-2.72-.26,1.05-.53,2.09-.82,3.12s-.58,1.99-.86,2.88-.52,1.63-.73,2.24l-6.67,17.67h18.32Z"></path>
        <path class="cls-2" d="m527.67,408.34h-10.46l-14.11-22.96-14.18,22.96h-9.85l18.63-29.05-17.36-26.98h10.16l13.03,21.24,12.96-21.24h9.85l-17.44,27.25,18.78,28.79Z"></path>
        <path class="cls-2" d="m571.82,387.03c0,3.53-.46,6.66-1.38,9.39-.92,2.73-2.26,5.04-4.02,6.92-1.76,1.88-3.88,3.31-6.36,4.29s-5.28,1.48-8.39,1.48c-2.91,0-5.58-.49-8.01-1.48s-4.53-2.42-6.3-4.29c-1.78-1.88-3.15-4.18-4.12-6.92-.97-2.73-1.46-5.86-1.46-9.39,0-4.68.81-8.64,2.43-11.9s3.94-5.74,6.96-7.46c3.01-1.71,6.61-2.57,10.77-2.57,3.91,0,7.36.86,10.35,2.57,2.99,1.71,5.33,4.2,7.01,7.47,1.69,3.27,2.53,7.23,2.53,11.88Zm-30.78,0c0,3.09.38,5.74,1.13,7.93s1.92,3.88,3.51,5.04c1.58,1.16,3.63,1.74,6.13,1.74s4.55-.58,6.13-1.74c1.58-1.16,2.75-2.84,3.49-5.04s1.11-4.84,1.11-7.93-.37-5.72-1.11-7.88c-.74-2.16-1.9-3.81-3.49-4.94-1.58-1.14-3.64-1.71-6.17-1.71-3.73,0-6.45,1.25-8.16,3.76s-2.57,6.09-2.57,10.77Z"></path>
        <path class="cls-2" d="m603.68,365.1c.72,0,1.5.04,2.34.12.84.08,1.57.18,2.18.31l-.84,8.43c-.54-.15-1.19-.27-1.97-.34-.78-.08-1.48-.12-2.09-.12-1.61,0-3.14.26-4.6.79-1.46.52-2.75,1.32-3.87,2.38-1.12,1.06-2.01,2.38-2.64,3.97-.64,1.58-.96,3.42-.96,5.52v22.19h-9.05v-42.43h7.05l1.23,7.47h.42c.84-1.51,1.89-2.89,3.14-4.14s2.69-2.25,4.31-3.01c1.62-.75,3.4-1.13,5.35-1.13Z"></path>
        <path class="cls-2" d="m620.62,349.65c1.38,0,2.57.37,3.58,1.11,1.01.74,1.51,2.02,1.51,3.83s-.5,3.06-1.51,3.81c-1.01.75-2.2,1.13-3.58,1.13s-2.64-.38-3.62-1.13c-.98-.75-1.48-2.03-1.48-3.81s.49-3.09,1.48-3.83c.98-.74,2.19-1.11,3.62-1.11Zm4.45,16.25v42.43h-9.01v-42.43h9.01Z"></path>
        <path class="cls-2" d="m654.58,365.1c5.37,0,9.42,1.19,12.17,3.56,2.75,2.38,4.12,6.08,4.12,11.12v28.56h-6.4l-1.72-6.02h-.31c-1.2,1.53-2.44,2.8-3.72,3.79-1.28,1-2.75,1.74-4.43,2.24-1.67.5-3.71.75-6.11.75-2.53,0-4.79-.47-6.79-1.4-1.99-.93-3.56-2.36-4.71-4.27-1.15-1.92-1.73-4.34-1.73-7.28,0-4.37,1.63-7.65,4.89-9.85,3.26-2.2,8.18-3.41,14.78-3.64l7.36-.27v-2.22c0-2.94-.68-5.03-2.05-6.29-1.37-1.25-3.29-1.88-5.77-1.88-2.12,0-4.18.31-6.17.92-1.99.61-3.94,1.37-5.83,2.26l-2.91-6.36c2.07-1.1,4.43-1.99,7.07-2.68,2.64-.69,5.4-1.04,8.26-1.04Zm7.36,22.96l-5.48.19c-4.5.15-7.65.92-9.47,2.3s-2.72,3.27-2.72,5.67c0,2.1.63,3.62,1.88,4.58,1.25.96,2.9,1.44,4.94,1.44,3.12,0,5.7-.89,7.76-2.66,2.06-1.78,3.08-4.39,3.08-7.84v-3.68Z"></path>
        <path class="cls-2" d="m705.6,365.1c4.78,0,8.5,1.23,11.17,3.7,2.67,2.47,4,6.42,4,11.86v27.67h-9.01v-25.99c0-3.3-.68-5.77-2.03-7.42-1.35-1.65-3.45-2.47-6.29-2.47-4.11,0-6.97,1.26-8.57,3.79-1.6,2.53-2.4,6.2-2.4,11v21.08h-9.01v-42.43h7.01l1.26,5.75h.5c.92-1.48,2.06-2.7,3.43-3.66,1.37-.96,2.9-1.68,4.6-2.17s3.47-.73,5.31-.73Z"></path>
        <path class="cls-2" d="m749.14,401.82c1.17,0,2.34-.11,3.49-.33,1.15-.22,2.2-.48,3.14-.79v6.82c-1,.43-2.29.8-3.87,1.11-1.58.31-3.23.46-4.94.46-2.4,0-4.56-.4-6.48-1.21-1.92-.81-3.44-2.19-4.56-4.16-1.12-1.97-1.69-4.69-1.69-8.16v-22.81h-5.79v-4.02l6.21-3.18,2.95-9.08h5.67v9.43h12.15v6.86h-12.15v22.69c0,2.15.54,3.74,1.61,4.79,1.07,1.05,2.49,1.57,4.25,1.57Z"></path>
        <path class="cls-2" d="m809.97,357.24c-3.09,0-5.87.53-8.34,1.59s-4.56,2.59-6.29,4.6c-1.72,2.01-3.05,4.43-3.97,7.26-.92,2.84-1.38,6.03-1.38,9.58,0,4.7.73,8.78,2.2,12.25,1.47,3.46,3.67,6.14,6.59,8.03,2.93,1.89,6.59,2.84,10.98,2.84,2.5,0,4.86-.21,7.07-.63,2.21-.42,4.36-.95,6.46-1.59v5.67c-2.04.77-4.19,1.34-6.44,1.71s-4.92.56-8.01.56c-5.7,0-10.46-1.18-14.28-3.55-3.82-2.36-6.68-5.7-8.59-10.02-1.9-4.32-2.86-9.42-2.86-15.29,0-4.24.59-8.12,1.78-11.63,1.19-3.51,2.93-6.55,5.21-9.1,2.29-2.56,5.1-4.53,8.43-5.92,3.33-1.39,7.16-2.09,11.48-2.09,2.84,0,5.57.28,8.2.84s5.01,1.37,7.13,2.41l-2.61,5.52c-1.79-.82-3.75-1.53-5.88-2.13-2.13-.6-4.44-.9-6.92-.9Z"></path>
        <path class="cls-2" d="m870.72,387.25c0,3.45-.45,6.53-1.34,9.24s-2.18,5-3.87,6.86-3.72,3.29-6.11,4.27c-2.39.98-5.09,1.48-8.11,1.48-2.81,0-5.38-.49-7.72-1.48-2.34-.98-4.36-2.41-6.06-4.27-1.7-1.87-3.02-4.15-3.95-6.86s-1.4-5.79-1.4-9.24c0-4.6.78-8.51,2.34-11.75,1.56-3.23,3.79-5.7,6.69-7.4,2.9-1.7,6.36-2.55,10.37-2.55s7.19.86,10.06,2.57,5.11,4.18,6.71,7.42c1.6,3.23,2.4,7.14,2.4,11.71Zm-31.97,0c0,3.37.45,6.3,1.34,8.78s2.27,4.4,4.14,5.75c1.87,1.35,4.27,2.03,7.21,2.03s5.31-.68,7.19-2.03c1.88-1.35,3.26-3.27,4.16-5.75s1.34-5.41,1.34-8.78-.45-6.24-1.34-8.68c-.89-2.44-2.27-4.32-4.14-5.65-1.87-1.33-4.28-1.99-7.24-1.99-4.37,0-7.57,1.44-9.6,4.33-2.03,2.89-3.05,6.89-3.05,12Z"></path>
        <path class="cls-2" d="m927.33,365.56c4.62,0,8.11,1.21,10.46,3.62,2.35,2.42,3.53,6.29,3.53,11.63v27.52h-6.29v-27.21c0-3.4-.74-5.95-2.2-7.65-1.47-1.7-3.65-2.55-6.54-2.55-4.06,0-7.01,1.18-8.85,3.53-1.84,2.35-2.76,5.81-2.76,10.39v23.5h-6.32v-27.21c0-2.27-.33-4.16-.98-5.67-.65-1.51-1.62-2.64-2.91-3.39-1.29-.75-2.92-1.13-4.89-1.13-2.79,0-5.02.58-6.71,1.72-1.69,1.15-2.91,2.86-3.66,5.12s-1.13,5.04-1.13,8.34v22.23h-6.36v-42.01h5.14l.96,5.94h.34c.84-1.46,1.9-2.68,3.18-3.68,1.28-1,2.71-1.75,4.29-2.26,1.58-.51,3.27-.77,5.06-.77,3.19,0,5.87.59,8.03,1.78s3.72,3,4.7,5.42h.35c1.38-2.43,3.27-4.24,5.67-5.42,2.4-1.19,5.03-1.78,7.9-1.78Z"></path>
        <path class="cls-2" d="m974.14,365.56c5.24,0,9.42,1.8,12.53,5.4,3.12,3.6,4.68,9.02,4.68,16.25,0,4.78-.72,8.79-2.15,12.04-1.43,3.25-3.44,5.7-6.04,7.36-2.59,1.66-5.65,2.49-9.18,2.49-2.22,0-4.18-.29-5.87-.88-1.69-.59-3.13-1.38-4.33-2.38-1.2-1-2.2-2.08-2.99-3.26h-.46c.08,1,.17,2.2.29,3.6s.17,2.63.17,3.68v17.25h-6.4v-60.79h5.25l.84,6.21h.31c.82-1.28,1.81-2.45,2.99-3.51,1.17-1.06,2.61-1.9,4.31-2.53,1.7-.63,3.71-.94,6.04-.94Zm-1.11,5.37c-2.91,0-5.26.56-7.03,1.69-1.78,1.12-3.07,2.8-3.89,5.04-.82,2.24-1.25,5.04-1.3,8.41v1.23c0,3.55.39,6.55,1.17,9.01.78,2.45,2.07,4.32,3.87,5.6,1.8,1.28,4.22,1.92,7.26,1.92,2.61,0,4.78-.7,6.52-2.11s3.03-3.37,3.89-5.88,1.28-5.41,1.28-8.68c0-4.96-.96-8.9-2.89-11.83-1.93-2.93-4.89-4.39-8.87-4.39Z"></path>
        <path class="cls-2" d="m1018.14,365.64c5.01,0,8.73,1.12,11.15,3.37,2.43,2.25,3.64,5.84,3.64,10.77v28.56h-4.64l-1.23-6.21h-.31c-1.17,1.53-2.4,2.82-3.68,3.85-1.28,1.04-2.75,1.81-4.43,2.34s-3.72.79-6.15.79c-2.56,0-4.82-.45-6.8-1.34-1.98-.89-3.54-2.25-4.68-4.06s-1.71-4.11-1.71-6.9c0-4.19,1.66-7.41,4.98-9.66,3.32-2.25,8.38-3.48,15.18-3.68l7.24-.31v-2.57c0-3.63-.78-6.17-2.34-7.63-1.56-1.46-3.76-2.18-6.59-2.18-2.2,0-4.29.32-6.29.96-1.99.64-3.88,1.39-5.67,2.26l-1.96-4.83c1.89-.97,4.06-1.8,6.52-2.49,2.45-.69,5.03-1.03,7.74-1.03Zm8.51,22l-6.4.27c-5.24.2-8.93,1.06-11.08,2.57s-3.22,3.64-3.22,6.4c0,2.4.73,4.18,2.18,5.33s3.39,1.72,5.79,1.72c3.73,0,6.78-1.04,9.16-3.1,2.38-2.07,3.57-5.17,3.57-9.31v-3.87Z"></path>
        <path class="cls-2" d="m1065.94,365.56c4.98,0,8.75,1.22,11.31,3.66,2.56,2.44,3.83,6.36,3.83,11.75v27.37h-6.29v-26.95c0-3.5-.8-6.12-2.4-7.86-1.6-1.74-4.04-2.61-7.34-2.61-4.65,0-7.92,1.32-9.81,3.95-1.89,2.63-2.84,6.45-2.84,11.46v22h-6.36v-42.01h5.14l.96,6.06h.34c.89-1.48,2.03-2.73,3.41-3.74s2.93-1.78,4.64-2.3,3.51-.79,5.41-.79Z"></path>
        <path class="cls-2" d="m1087.55,366.33h6.82l9.28,24.38c.54,1.43,1.03,2.8,1.49,4.12.46,1.32.87,2.58,1.23,3.78.36,1.2.64,2.36.84,3.49h.27c.36-1.28.87-2.96,1.53-5.04.67-2.08,1.38-4.21,2.15-6.38l8.78-24.34h6.86l-18.28,48.18c-.97,2.58-2.1,4.83-3.39,6.75-1.29,1.92-2.86,3.39-4.7,4.43-1.84,1.03-4.06,1.55-6.67,1.55-1.2,0-2.26-.07-3.18-.21s-1.71-.3-2.38-.48v-5.1c.56.13,1.25.24,2.05.34.8.1,1.64.15,2.51.15,1.58,0,2.96-.3,4.12-.9,1.16-.6,2.17-1.48,3.01-2.62.84-1.15,1.57-2.52,2.18-4.1l2.3-5.9-16.83-42.09Z"></path>
      </g>
    </g>
  </g>
</svg>
