<svg xmlns="http://www.w3.org/2000/svg" width="89" height="80" viewBox="0 0 89 80" fill="none">
  <path d="M87.5653 74.486H0.689558C0.308405 74.486 0 74.7944 0 75.1755C0 75.5567 0.308405 75.8651 0.689558 75.8651H87.5653C87.9464 75.8651 88.2548 75.5567 88.2548 75.1755C88.2548 74.7944 87.9464 74.486 87.5653 74.486ZM28.2691 49.6641H15.8583C15.4771 49.6641 15.1687 49.9725 15.1687 50.3537V72.4175C15.1687 72.7986 15.4771 73.107 15.8583 73.107C16.2394 73.107 16.5478 72.7986 16.5478 72.4175V51.0432H28.2691C28.6501 51.0432 28.9585 50.7348 28.9585 50.3537C28.9585 49.9725 28.6501 49.6641 28.2691 49.6641ZM57.2276 41.3906H31.027C30.6459 41.3906 30.3375 41.699 30.3375 42.0802V72.4176C30.3375 72.7988 30.6459 73.1072 31.027 73.1072C31.4082 73.1072 31.7166 72.7988 31.7166 72.4176V42.7694H56.5381V72.4176C56.5381 72.7988 56.8465 73.1072 57.2276 73.1072C57.6088 73.1072 57.9172 72.7988 57.9172 72.4176V42.0802C57.9172 41.699 57.6088 41.3906 57.2276 41.3906Z" fill="#818EA1"></path>
  <path d="M87.5653 74.486H0.689558C0.308405 74.486 0 74.7944 0 75.1755C0 75.5567 0.308405 75.8651 0.689558 75.8651H87.5653C87.9464 75.8651 88.2548 75.5567 88.2548 75.1755C88.2548 74.7944 87.9464 74.486 87.5653 74.486ZM28.2691 49.6641H15.8583C15.4771 49.6641 15.1687 49.9725 15.1687 50.3537V72.4175C15.1687 72.7986 15.4771 73.107 15.8583 73.107C16.2394 73.107 16.5478 72.7986 16.5478 72.4175V51.0432H28.2691C28.6501 51.0432 28.9585 50.7348 28.9585 50.3537C28.9585 49.9725 28.6501 49.6641 28.2691 49.6641ZM57.2276 41.3906H31.027C30.6459 41.3906 30.3375 41.699 30.3375 42.0802V72.4176C30.3375 72.7988 30.6459 73.1072 31.027 73.1072C31.4082 73.1072 31.7166 72.7988 31.7166 72.4176V42.7694H56.5381V72.4176C56.5381 72.7988 56.8465 73.1072 57.2276 73.1072C57.6088 73.1072 57.9172 72.7988 57.9172 72.4176V42.0802C57.9172 41.699 57.6088 41.3906 57.2276 41.3906Z" fill="#818EA1"></path>
  <path d="M21.3678 49.6328C20.9866 49.6328 20.6782 49.9412 20.6782 50.3224V72.3862C20.6782 72.7673 20.9866 73.0757 21.3678 73.0757C21.7489 73.0757 22.0572 72.7673 22.0572 72.3862V50.3224C22.0572 49.9412 21.7488 49.6328 21.3678 49.6328ZM26.1942 53.77C24.673 53.77 23.4361 55.0064 23.4361 56.5279V59.9753C23.4361 60.3565 23.7447 60.6649 24.1257 60.6649H28.2627C28.3532 60.6649 28.4429 60.6471 28.5266 60.6125C28.6103 60.5778 28.6863 60.527 28.7503 60.463C28.8143 60.399 28.8651 60.3229 28.8997 60.2392C28.9344 60.1556 28.9521 60.0659 28.9521 59.9753V56.5279C28.9521 55.0064 27.7153 53.77 26.1942 53.77ZM27.5731 59.2861H24.8152V56.5279C24.8152 55.7687 25.4339 55.1491 26.1942 55.1491C26.9544 55.1491 27.5731 55.7687 27.5731 56.5279V59.2861ZM26.1942 63.4228C24.673 63.4228 23.4361 64.6591 23.4361 66.181V69.6284C23.4361 69.719 23.454 69.8086 23.4886 69.8923C23.5233 69.9759 23.5741 70.0519 23.6381 70.1159C23.7021 70.1799 23.7782 70.2307 23.8618 70.2653C23.9455 70.2999 24.0351 70.3177 24.1257 70.3177H28.2627C28.3532 70.3177 28.4429 70.2999 28.5265 70.2653C28.6102 70.2307 28.6862 70.18 28.7502 70.116C28.8143 70.052 28.865 69.9759 28.8997 69.8923C28.9343 69.8086 28.9521 69.719 28.9521 69.6284V66.181C28.9521 64.6591 27.7153 63.4228 26.1942 63.4228ZM27.5731 68.9389H24.8152V66.181C24.8152 65.4215 25.4339 64.8019 26.1942 64.8019C26.9544 64.8019 27.5731 65.4215 27.5731 66.181V68.9389ZM17.4261 63.5683C17.0658 63.4443 16.674 63.6396 16.5521 64.0006C16.523 64.0864 16.5111 64.177 16.5171 64.2674C16.5231 64.3577 16.5469 64.446 16.587 64.5272C16.6271 64.6084 16.6829 64.6808 16.7511 64.7405C16.8192 64.8001 16.8985 64.8457 16.9843 64.8746C17.2574 64.9669 17.4948 65.1427 17.6627 65.3771C17.8307 65.6114 17.9208 65.8927 17.9203 66.181V68.9389H17.2308C16.8496 68.9389 16.5412 69.2473 16.5412 69.6284C16.5412 69.719 16.5591 69.8086 16.5937 69.8923C16.6284 69.9759 16.6792 70.0519 16.7432 70.1159C16.8072 70.1799 16.8833 70.2307 16.9669 70.2653C17.0506 70.2999 17.1402 70.3177 17.2308 70.3177H18.6099C18.7004 70.3177 18.7901 70.2999 18.8737 70.2653C18.9574 70.2307 19.0334 70.1799 19.0974 70.1159C19.1614 70.0519 19.2122 69.9759 19.2469 69.8923C19.2815 69.8086 19.2993 69.719 19.2993 69.6284V66.181C19.2998 65.6042 19.1193 65.0419 18.7832 64.5731C18.4472 64.1044 17.9725 63.7529 17.4261 63.5683ZM17.4261 53.9155C17.2529 53.8571 17.0635 53.8698 16.8997 53.9509C16.7358 54.0319 16.6108 54.1747 16.5521 54.3478C16.523 54.4336 16.5111 54.5243 16.5171 54.6146C16.5231 54.705 16.5469 54.7933 16.587 54.8744C16.6271 54.9556 16.6829 55.0281 16.7511 55.0877C16.8192 55.1473 16.8985 55.1929 16.9843 55.2219C17.2574 55.3141 17.4947 55.4898 17.6626 55.7241C17.8306 55.9585 17.9207 56.2396 17.9203 56.5279V59.2861H17.2308C16.8496 59.2861 16.5412 59.5942 16.5412 59.9753C16.5412 60.3565 16.8498 60.6649 17.2308 60.6649H18.6099C18.7005 60.6649 18.7901 60.6471 18.8738 60.6125C18.9575 60.5778 19.0335 60.527 19.0975 60.463C19.1616 60.399 19.2123 60.3229 19.247 60.2392C19.2816 60.1556 19.2994 60.0659 19.2993 59.9753V56.5279C19.2998 55.9512 19.1192 55.3889 18.7832 54.9202C18.4471 54.4515 17.9725 54.1001 17.4261 53.9155ZM72.3901 49.6328H59.9791C59.5979 49.6328 59.2895 49.9412 59.2895 50.3224C59.2895 50.7035 59.5979 51.0119 59.9791 51.0119H71.7005V72.3862C71.7005 72.7673 72.0089 73.0757 72.3901 73.0757C72.7713 73.0757 73.0793 72.7673 73.0793 72.3862V50.3224C73.0793 49.9412 72.7713 49.6328 72.3901 49.6328Z" fill="#818EA1"></path>
  <path d="M21.3678 49.6328C20.9866 49.6328 20.6782 49.9412 20.6782 50.3224V72.3862C20.6782 72.7673 20.9866 73.0757 21.3678 73.0757C21.7489 73.0757 22.0572 72.7673 22.0572 72.3862V50.3224C22.0572 49.9412 21.7488 49.6328 21.3678 49.6328ZM26.1942 53.77C24.673 53.77 23.4361 55.0064 23.4361 56.5279V59.9753C23.4361 60.3565 23.7447 60.6649 24.1257 60.6649H28.2627C28.3532 60.6649 28.4429 60.6471 28.5266 60.6125C28.6103 60.5778 28.6863 60.527 28.7503 60.463C28.8143 60.399 28.8651 60.3229 28.8997 60.2392C28.9344 60.1556 28.9521 60.0659 28.9521 59.9753V56.5279C28.9521 55.0064 27.7153 53.77 26.1942 53.77ZM27.5731 59.2861H24.8152V56.5279C24.8152 55.7687 25.4339 55.1491 26.1942 55.1491C26.9544 55.1491 27.5731 55.7687 27.5731 56.5279V59.2861ZM26.1942 63.4228C24.673 63.4228 23.4361 64.6591 23.4361 66.181V69.6284C23.4361 69.719 23.454 69.8086 23.4886 69.8923C23.5233 69.9759 23.5741 70.0519 23.6381 70.1159C23.7021 70.1799 23.7782 70.2307 23.8618 70.2653C23.9455 70.2999 24.0351 70.3177 24.1257 70.3177H28.2627C28.3532 70.3177 28.4429 70.2999 28.5265 70.2653C28.6102 70.2307 28.6862 70.18 28.7502 70.116C28.8143 70.052 28.865 69.9759 28.8997 69.8923C28.9343 69.8086 28.9521 69.719 28.9521 69.6284V66.181C28.9521 64.6591 27.7153 63.4228 26.1942 63.4228ZM27.5731 68.9389H24.8152V66.181C24.8152 65.4215 25.4339 64.8019 26.1942 64.8019C26.9544 64.8019 27.5731 65.4215 27.5731 66.181V68.9389ZM17.4261 63.5683C17.0658 63.4443 16.674 63.6396 16.5521 64.0006C16.523 64.0864 16.5111 64.177 16.5171 64.2674C16.5231 64.3577 16.5469 64.446 16.587 64.5272C16.6271 64.6084 16.6829 64.6808 16.7511 64.7405C16.8192 64.8001 16.8985 64.8457 16.9843 64.8746C17.2574 64.9669 17.4948 65.1427 17.6627 65.3771C17.8307 65.6114 17.9208 65.8927 17.9203 66.181V68.9389H17.2308C16.8496 68.9389 16.5412 69.2473 16.5412 69.6284C16.5412 69.719 16.5591 69.8086 16.5937 69.8923C16.6284 69.9759 16.6792 70.0519 16.7432 70.1159C16.8072 70.1799 16.8833 70.2307 16.9669 70.2653C17.0506 70.2999 17.1402 70.3177 17.2308 70.3177H18.6099C18.7004 70.3177 18.7901 70.2999 18.8737 70.2653C18.9574 70.2307 19.0334 70.1799 19.0974 70.1159C19.1614 70.0519 19.2122 69.9759 19.2469 69.8923C19.2815 69.8086 19.2993 69.719 19.2993 69.6284V66.181C19.2998 65.6042 19.1193 65.0419 18.7832 64.5731C18.4472 64.1044 17.9725 63.7529 17.4261 63.5683ZM17.4261 53.9155C17.2529 53.8571 17.0635 53.8698 16.8997 53.9509C16.7358 54.0319 16.6108 54.1747 16.5521 54.3478C16.523 54.4336 16.5111 54.5243 16.5171 54.6146C16.5231 54.705 16.5469 54.7933 16.587 54.8744C16.6271 54.9556 16.6829 55.0281 16.7511 55.0877C16.8192 55.1473 16.8985 55.1929 16.9843 55.2219C17.2574 55.3141 17.4947 55.4898 17.6626 55.7241C17.8306 55.9585 17.9207 56.2396 17.9203 56.5279V59.2861H17.2308C16.8496 59.2861 16.5412 59.5942 16.5412 59.9753C16.5412 60.3565 16.8498 60.6649 17.2308 60.6649H18.6099C18.7005 60.6649 18.7901 60.6471 18.8738 60.6125C18.9575 60.5778 19.0335 60.527 19.0975 60.463C19.1616 60.399 19.2123 60.3229 19.247 60.2392C19.2816 60.1556 19.2994 60.0659 19.2993 59.9753V56.5279C19.2998 55.9512 19.1192 55.3889 18.7832 54.9202C18.4471 54.4515 17.9725 54.1001 17.4261 53.9155ZM72.3901 49.6328H59.9791C59.5979 49.6328 59.2895 49.9412 59.2895 50.3224C59.2895 50.7035 59.5979 51.0119 59.9791 51.0119H71.7005V72.3862C71.7005 72.7673 72.0089 73.0757 72.3901 73.0757C72.7713 73.0757 73.0793 72.7673 73.0793 72.3862V50.3224C73.0793 49.9412 72.7713 49.6328 72.3901 49.6328Z" fill="#818EA1"></path>
  <path d="M66.863 49.6328C66.4818 49.6328 66.1734 49.9412 66.1734 50.3224V72.3862C66.1734 72.7673 66.4818 73.0757 66.863 73.0757C67.2441 73.0757 67.5525 72.7673 67.5525 72.3862V50.3224C67.5525 49.9412 67.2441 49.6328 66.863 49.6328ZM62.0367 53.77C60.5149 53.77 59.2785 55.0064 59.2785 56.5279V59.9753C59.2785 60.3565 59.5869 60.6649 59.9681 60.6649H64.1051C64.4862 60.6649 64.7946 60.3565 64.7946 59.9753V56.5279C64.7946 55.0064 63.5582 53.77 62.0367 53.77ZM63.4155 59.2861H60.6576V56.5279C60.6576 55.7687 61.2772 55.1491 62.0367 55.1491C62.7959 55.1491 63.4155 55.7687 63.4155 56.5279V59.2861ZM62.0367 63.4228C60.5149 63.4228 59.2785 64.6591 59.2785 66.181V69.6284C59.2785 69.719 59.2963 69.8086 59.331 69.8923C59.3656 69.976 59.4164 70.052 59.4804 70.116C59.5445 70.18 59.6205 70.2307 59.7042 70.2653C59.7878 70.2999 59.8775 70.3177 59.9681 70.3177H64.1051C64.4862 70.3177 64.7946 70.0092 64.7946 69.6284V66.181C64.7946 64.6591 63.5582 63.4228 62.0367 63.4228ZM63.4155 68.9389H60.6576V66.181C60.6576 65.4214 61.2772 64.8019 62.0367 64.8019C62.7959 64.8019 63.4155 65.4214 63.4155 66.181V68.9389ZM70.9998 68.9389H70.3102V66.181C70.3097 65.8926 70.3998 65.6114 70.5677 65.377C70.7357 65.1425 70.9731 64.9668 71.2463 64.8746C71.4194 64.8158 71.562 64.6908 71.6431 64.527C71.7241 64.3631 71.7369 64.1739 71.6787 64.0006C71.6499 63.9147 71.6044 63.8353 71.5449 63.7669C71.4853 63.6986 71.4128 63.6428 71.3316 63.6026C71.2504 63.5624 71.162 63.5387 71.0715 63.5328C70.9811 63.5269 70.8904 63.539 70.8046 63.5683C70.2581 63.7527 69.7834 64.1042 69.4473 64.5729C69.1112 65.0417 68.9309 65.6042 68.9316 66.181V69.6284C68.9316 69.719 68.9494 69.8086 68.984 69.8922C69.0187 69.9758 69.0694 70.0518 69.1334 70.1158C69.1974 70.1798 69.2734 70.2306 69.3571 70.2652C69.4407 70.2999 69.5303 70.3177 69.6208 70.3177H71C71.3811 70.3177 71.6895 70.0092 71.6893 69.6284C71.6893 69.2473 71.3809 68.9389 70.9998 68.9389ZM70.9998 59.2861H70.3102V56.5279C70.3097 56.2396 70.3998 55.9584 70.5678 55.724C70.7358 55.4897 70.9731 55.314 71.2463 55.2219C71.4194 55.163 71.562 55.038 71.6431 54.8742C71.7241 54.7104 71.7369 54.5211 71.6787 54.3478C71.6499 54.2619 71.6044 54.1825 71.5449 54.1142C71.4853 54.0459 71.4128 53.99 71.3316 53.9498C71.2504 53.9096 71.162 53.8859 71.0715 53.88C70.9811 53.8741 70.8904 53.8862 70.8046 53.9155C70.2582 54.0999 69.7835 54.4513 69.4474 54.92C69.1113 55.3887 68.9309 55.9511 68.9316 56.5279V59.9753C68.9316 60.3565 69.24 60.6649 69.6208 60.6649H71C71.3811 60.6649 71.6893 60.3565 71.6893 59.9753C71.6893 59.5942 71.3809 59.2861 70.9998 59.2861ZM44.1099 53.77C39.161 53.77 35.8359 57.0949 35.8359 62.044V72.3863C35.8359 72.7675 36.1443 73.0759 36.5255 73.0759C36.9066 73.0759 37.2151 72.7675 37.2151 72.3863V62.044C37.2151 57.8558 39.9212 55.1491 44.1099 55.1491C47.9117 55.1491 51.0048 58.2423 51.0048 62.044V72.3863C51.0048 72.7675 51.3132 73.0759 51.6944 73.0759C52.0755 73.0759 52.384 72.7675 52.384 72.3863V62.044C52.384 57.4814 48.6726 53.77 44.1099 53.77ZM36.5255 51.0121C36.1443 51.0121 35.8359 51.3205 35.8359 51.7017V55.8387C35.8359 56.2195 36.1443 56.5279 36.5255 56.5279C36.9066 56.5279 37.2151 56.2195 37.2151 55.8387V51.7017C37.2151 51.3205 36.9066 51.0121 36.5255 51.0121Z" fill="#818EA1"></path>
  <path d="M66.863 49.6328C66.4818 49.6328 66.1734 49.9412 66.1734 50.3224V72.3862C66.1734 72.7673 66.4818 73.0757 66.863 73.0757C67.2441 73.0757 67.5525 72.7673 67.5525 72.3862V50.3224C67.5525 49.9412 67.2441 49.6328 66.863 49.6328ZM62.0367 53.77C60.5149 53.77 59.2785 55.0064 59.2785 56.5279V59.9753C59.2785 60.3565 59.5869 60.6649 59.9681 60.6649H64.1051C64.4862 60.6649 64.7946 60.3565 64.7946 59.9753V56.5279C64.7946 55.0064 63.5582 53.77 62.0367 53.77ZM63.4155 59.2861H60.6576V56.5279C60.6576 55.7687 61.2772 55.1491 62.0367 55.1491C62.7959 55.1491 63.4155 55.7687 63.4155 56.5279V59.2861ZM62.0367 63.4228C60.5149 63.4228 59.2785 64.6591 59.2785 66.181V69.6284C59.2785 69.719 59.2963 69.8086 59.331 69.8923C59.3656 69.976 59.4164 70.052 59.4804 70.116C59.5445 70.18 59.6205 70.2307 59.7042 70.2653C59.7878 70.2999 59.8775 70.3177 59.9681 70.3177H64.1051C64.4862 70.3177 64.7946 70.0092 64.7946 69.6284V66.181C64.7946 64.6591 63.5582 63.4228 62.0367 63.4228ZM63.4155 68.9389H60.6576V66.181C60.6576 65.4214 61.2772 64.8019 62.0367 64.8019C62.7959 64.8019 63.4155 65.4214 63.4155 66.181V68.9389ZM70.9998 68.9389H70.3102V66.181C70.3097 65.8926 70.3998 65.6114 70.5677 65.377C70.7357 65.1425 70.9731 64.9668 71.2463 64.8746C71.4194 64.8158 71.562 64.6908 71.6431 64.527C71.7241 64.3631 71.7369 64.1739 71.6787 64.0006C71.6499 63.9147 71.6044 63.8353 71.5449 63.7669C71.4853 63.6986 71.4128 63.6428 71.3316 63.6026C71.2504 63.5624 71.162 63.5387 71.0715 63.5328C70.9811 63.5269 70.8904 63.539 70.8046 63.5683C70.2581 63.7527 69.7834 64.1042 69.4473 64.5729C69.1112 65.0417 68.9309 65.6042 68.9316 66.181V69.6284C68.9316 69.719 68.9494 69.8086 68.984 69.8922C69.0187 69.9758 69.0694 70.0518 69.1334 70.1158C69.1974 70.1798 69.2734 70.2306 69.3571 70.2652C69.4407 70.2999 69.5303 70.3177 69.6208 70.3177H71C71.3811 70.3177 71.6895 70.0092 71.6893 69.6284C71.6893 69.2473 71.3809 68.9389 70.9998 68.9389ZM70.9998 59.2861H70.3102V56.5279C70.3097 56.2396 70.3998 55.9584 70.5678 55.724C70.7358 55.4897 70.9731 55.314 71.2463 55.2219C71.4194 55.163 71.562 55.038 71.6431 54.8742C71.7241 54.7104 71.7369 54.5211 71.6787 54.3478C71.6499 54.2619 71.6044 54.1825 71.5449 54.1142C71.4853 54.0459 71.4128 53.99 71.3316 53.9498C71.2504 53.9096 71.162 53.8859 71.0715 53.88C70.9811 53.8741 70.8904 53.8862 70.8046 53.9155C70.2582 54.0999 69.7835 54.4513 69.4474 54.92C69.1113 55.3887 68.9309 55.9511 68.9316 56.5279V59.9753C68.9316 60.3565 69.24 60.6649 69.6208 60.6649H71C71.3811 60.6649 71.6893 60.3565 71.6893 59.9753C71.6893 59.5942 71.3809 59.2861 70.9998 59.2861ZM44.1099 53.77C39.161 53.77 35.8359 57.0949 35.8359 62.044V72.3863C35.8359 72.7675 36.1443 73.0759 36.5255 73.0759C36.9066 73.0759 37.2151 72.7675 37.2151 72.3863V62.044C37.2151 57.8558 39.9212 55.1491 44.1099 55.1491C47.9117 55.1491 51.0048 58.2423 51.0048 62.044V72.3863C51.0048 72.7675 51.3132 73.0759 51.6944 73.0759C52.0755 73.0759 52.384 72.7675 52.384 72.3863V62.044C52.384 57.4814 48.6726 53.77 44.1099 53.77ZM36.5255 51.0121C36.1443 51.0121 35.8359 51.3205 35.8359 51.7017V55.8387C35.8359 56.2195 36.1443 56.5279 36.5255 56.5279C36.9066 56.5279 37.2151 56.2195 37.2151 55.8387V51.7017C37.2151 51.3205 36.9066 51.0121 36.5255 51.0121Z" fill="#818EA1"></path>
  <path d="M51.6944 51H36.5255C36.1443 51 35.8359 51.3084 35.8359 51.6896C35.8359 52.0707 36.1443 52.3791 36.5255 52.3791H51.6944C52.0755 52.3791 52.384 52.0707 52.384 51.6896C52.384 51.3084 52.0755 51 51.6944 51Z" fill="#818EA1"></path>
  <path d="M51.6944 51H36.5255C36.1443 51 35.8359 51.3084 35.8359 51.6896C35.8359 52.0707 36.1443 52.3791 36.5255 52.3791H51.6944C52.0755 52.3791 52.384 52.0707 52.384 51.6896C52.384 51.3084 52.0755 51 51.6944 51Z" fill="#818EA1"></path>
  <path d="M51.6916 51.0432C51.3104 51.0432 51.002 51.3516 51.002 51.7328V54.5998C51.002 54.9809 51.3104 55.2894 51.6916 55.2894C52.0727 55.2894 52.3811 54.9809 52.3811 54.5998V51.7328C52.3811 51.3516 52.0727 51.0432 51.6916 51.0432ZM48.9337 64.833H39.2806C38.8996 64.833 38.5912 65.1414 38.5912 65.5226C38.5912 65.9037 38.8996 66.2121 39.2806 66.2121H48.9337C49.3145 66.2121 49.6229 65.9037 49.6229 65.5226C49.6229 65.1414 49.3145 64.833 48.9337 64.833ZM44.1071 59.3174C43.726 59.3174 43.4176 59.6255 43.4176 60.0066V62.7648C43.4176 62.8554 43.4354 62.945 43.4701 63.0287C43.5047 63.1123 43.5555 63.1883 43.6196 63.2523C43.6836 63.3163 43.7596 63.3671 43.8433 63.4017C43.9269 63.4363 44.0166 63.4541 44.1071 63.4541C44.4883 63.4541 44.7967 63.1457 44.7967 62.7648V60.0066C44.7967 59.9161 44.7789 59.8264 44.7443 59.7427C44.7096 59.6591 44.6588 59.5831 44.5948 59.519C44.5308 59.455 44.4547 59.4043 44.371 59.3697C44.2874 59.3351 44.1977 59.3173 44.1071 59.3174ZM44.1071 67.5911C43.726 67.5911 43.4176 67.8995 43.4176 68.2806V71.0385C43.4176 71.4197 43.7261 71.7281 44.1071 71.7281C44.4883 71.7281 44.7967 71.4197 44.7967 71.0385V68.2806C44.7967 67.8995 44.4883 67.5911 44.1071 67.5911ZM15.838 42.7694C15.4568 42.7694 15.1484 43.0778 15.1484 43.459V50.3538C15.1484 50.735 15.4568 51.0434 15.838 51.0434C16.2191 51.0434 16.5276 50.735 16.5276 50.3538V43.459C16.5276 43.0778 16.2191 42.7694 15.838 42.7694ZM72.3763 42.7694C71.9951 42.7694 71.6867 43.0778 71.6867 43.459V50.3538C71.6867 50.735 71.9951 51.0434 72.3763 51.0434C72.7574 51.0434 73.0655 50.735 73.0655 50.3538V43.459C73.0655 43.0778 72.7574 42.7694 72.3763 42.7694ZM62.7231 41.3906C60.8218 41.3906 59.2757 42.9364 59.2757 44.8381C59.2757 45.2192 59.5841 45.5276 59.9652 45.5276C60.3464 45.5276 60.6548 45.2192 60.6548 44.8381C60.6548 43.6974 61.5828 42.7694 62.7231 42.7694C63.8638 42.7694 64.7918 43.6974 64.7918 44.8381C64.7918 45.2192 65.1002 45.5276 65.4814 45.5276C65.8625 45.5276 66.1706 45.2192 66.1706 44.8381C66.1706 42.9364 64.6248 41.3906 62.7231 41.3906Z" fill="#818EA1"></path>
  <path d="M51.6916 51.0432C51.3104 51.0432 51.002 51.3516 51.002 51.7328V54.5998C51.002 54.9809 51.3104 55.2894 51.6916 55.2894C52.0727 55.2894 52.3811 54.9809 52.3811 54.5998V51.7328C52.3811 51.3516 52.0727 51.0432 51.6916 51.0432ZM48.9337 64.833H39.2806C38.8996 64.833 38.5912 65.1414 38.5912 65.5226C38.5912 65.9037 38.8996 66.2121 39.2806 66.2121H48.9337C49.3145 66.2121 49.6229 65.9037 49.6229 65.5226C49.6229 65.1414 49.3145 64.833 48.9337 64.833ZM44.1071 59.3174C43.726 59.3174 43.4176 59.6255 43.4176 60.0066V62.7648C43.4176 62.8554 43.4354 62.945 43.4701 63.0287C43.5047 63.1123 43.5555 63.1883 43.6196 63.2523C43.6836 63.3163 43.7596 63.3671 43.8433 63.4017C43.9269 63.4363 44.0166 63.4541 44.1071 63.4541C44.4883 63.4541 44.7967 63.1457 44.7967 62.7648V60.0066C44.7967 59.9161 44.7789 59.8264 44.7443 59.7427C44.7096 59.6591 44.6588 59.5831 44.5948 59.519C44.5308 59.455 44.4547 59.4043 44.371 59.3697C44.2874 59.3351 44.1977 59.3173 44.1071 59.3174ZM44.1071 67.5911C43.726 67.5911 43.4176 67.8995 43.4176 68.2806V71.0385C43.4176 71.4197 43.7261 71.7281 44.1071 71.7281C44.4883 71.7281 44.7967 71.4197 44.7967 71.0385V68.2806C44.7967 67.8995 44.4883 67.5911 44.1071 67.5911ZM15.838 42.7694C15.4568 42.7694 15.1484 43.0778 15.1484 43.459V50.3538C15.1484 50.735 15.4568 51.0434 15.838 51.0434C16.2191 51.0434 16.5276 50.735 16.5276 50.3538V43.459C16.5276 43.0778 16.2191 42.7694 15.838 42.7694ZM72.3763 42.7694C71.9951 42.7694 71.6867 43.0778 71.6867 43.459V50.3538C71.6867 50.735 71.9951 51.0434 72.3763 51.0434C72.7574 51.0434 73.0655 50.735 73.0655 50.3538V43.459C73.0655 43.0778 72.7574 42.7694 72.3763 42.7694ZM62.7231 41.3906C60.8218 41.3906 59.2757 42.9364 59.2757 44.8381C59.2757 45.2192 59.5841 45.5276 59.9652 45.5276C60.3464 45.5276 60.6548 45.2192 60.6548 44.8381C60.6548 43.6974 61.5828 42.7694 62.7231 42.7694C63.8638 42.7694 64.7918 43.6974 64.7918 44.8381C64.7918 45.2192 65.1002 45.5276 65.4814 45.5276C65.8625 45.5276 66.1706 45.2192 66.1706 44.8381C66.1706 42.9364 64.6248 41.3906 62.7231 41.3906Z" fill="#818EA1"></path>
  <path d="M59.9942 44.1406C59.6131 44.1406 59.3047 44.449 59.3047 44.8302V47.5881C59.3047 47.9692 59.6131 48.2776 59.9942 48.2776C60.3754 48.2776 60.6838 47.9692 60.6838 47.5881V44.8302C60.6838 44.449 60.3754 44.1406 59.9942 44.1406ZM65.5104 44.1406C65.1292 44.1406 64.8208 44.449 64.8208 44.8302V47.5881C64.8208 47.9692 65.1292 48.2776 65.5104 48.2776C65.8915 48.2776 66.1996 47.9692 66.1996 47.5881V44.8302C66.1996 44.449 65.8915 44.1406 65.5104 44.1406ZM62.7521 45.5197C62.6616 45.5197 62.572 45.5375 62.4883 45.5721C62.4047 45.6067 62.3286 45.6574 62.2646 45.7215C62.2006 45.7855 62.1499 45.8615 62.1152 45.9451C62.0806 46.0288 62.0629 46.1184 62.0629 46.209V47.5881C62.0629 47.9692 62.3713 48.2776 62.7521 48.2776C63.1333 48.2776 63.4417 47.9692 63.4417 47.5881V46.209C63.4418 46.1184 63.424 46.0287 63.3893 45.945C63.3547 45.8614 63.3039 45.7854 63.2399 45.7213C63.1758 45.6573 63.0998 45.6066 63.0161 45.572C62.9324 45.5374 62.8427 45.5196 62.7521 45.5197Z" fill="#818EA1"></path>
  <path d="M59.9942 44.1406C59.6131 44.1406 59.3047 44.449 59.3047 44.8302V47.5881C59.3047 47.9692 59.6131 48.2776 59.9942 48.2776C60.3754 48.2776 60.6838 47.9692 60.6838 47.5881V44.8302C60.6838 44.449 60.3754 44.1406 59.9942 44.1406ZM65.5104 44.1406C65.1292 44.1406 64.8208 44.449 64.8208 44.8302V47.5881C64.8208 47.9692 65.1292 48.2776 65.5104 48.2776C65.8915 48.2776 66.1996 47.9692 66.1996 47.5881V44.8302C66.1996 44.449 65.8915 44.1406 65.5104 44.1406ZM62.7521 45.5197C62.6616 45.5197 62.572 45.5375 62.4883 45.5721C62.4047 45.6067 62.3286 45.6574 62.2646 45.7215C62.2006 45.7855 62.1499 45.8615 62.1152 45.9451C62.0806 46.0288 62.0629 46.1184 62.0629 46.209V47.5881C62.0629 47.9692 62.3713 48.2776 62.7521 48.2776C63.1333 48.2776 63.4417 47.9692 63.4417 47.5881V46.209C63.4418 46.1184 63.424 46.0287 63.3893 45.945C63.3547 45.8614 63.3039 45.7854 63.2399 45.7213C63.1758 45.6573 63.0998 45.6066 63.0161 45.572C62.9324 45.5374 62.8427 45.5196 62.7521 45.5197Z" fill="#818EA1"></path>
  <path d="M65.5163 44.137H60.0002C59.619 44.137 59.3106 44.4454 59.3106 44.8266C59.3106 45.2077 59.619 45.5161 60.0002 45.5161H65.5163C65.8975 45.5161 66.2055 45.2077 66.2055 44.8266C66.2055 44.4454 65.8975 44.137 65.5163 44.137ZM62.7581 40C62.6675 40 62.5779 40.0178 62.4942 40.0524C62.4106 40.0871 62.3346 40.1379 62.2706 40.2019C62.2066 40.266 62.1558 40.342 62.1212 40.4257C62.0866 40.5093 62.0688 40.599 62.0689 40.6896V42.0687C62.0689 42.1592 62.0867 42.2488 62.1213 42.3325C62.1559 42.4161 62.2067 42.4921 62.2707 42.5561C62.3347 42.6201 62.4107 42.6708 62.4943 42.7055C62.5779 42.7401 62.6676 42.7579 62.7581 42.7579C63.1392 42.7579 63.4476 42.4495 63.4476 42.0687V40.6896C63.4476 40.3084 63.1392 40 62.7581 40ZM25.5256 41.3791C23.6248 41.3791 22.0781 42.9249 22.0781 44.8266C22.0781 45.2077 22.3865 45.5161 22.7677 45.5161C23.1488 45.5161 23.4572 45.2077 23.4572 44.8266C23.4572 43.6859 24.3852 42.7579 25.5257 42.7579C26.6664 42.7579 27.5942 43.6859 27.5942 44.8266C27.5942 45.2077 27.9026 45.5161 28.2838 45.5161C28.665 45.5161 28.9732 45.2077 28.973 44.8266C28.973 42.9249 27.4263 41.3791 25.5256 41.3791Z" fill="#818EA1"></path>
  <path d="M65.5163 44.137H60.0002C59.619 44.137 59.3106 44.4454 59.3106 44.8266C59.3106 45.2077 59.619 45.5161 60.0002 45.5161H65.5163C65.8975 45.5161 66.2055 45.2077 66.2055 44.8266C66.2055 44.4454 65.8975 44.137 65.5163 44.137ZM62.7581 40C62.6675 40 62.5779 40.0178 62.4942 40.0524C62.4106 40.0871 62.3346 40.1379 62.2706 40.2019C62.2066 40.266 62.1558 40.342 62.1212 40.4257C62.0866 40.5093 62.0688 40.599 62.0689 40.6896V42.0687C62.0689 42.1592 62.0867 42.2488 62.1213 42.3325C62.1559 42.4161 62.2067 42.4921 62.2707 42.5561C62.3347 42.6201 62.4107 42.6708 62.4943 42.7055C62.5779 42.7401 62.6676 42.7579 62.7581 42.7579C63.1392 42.7579 63.4476 42.4495 63.4476 42.0687V40.6896C63.4476 40.3084 63.1392 40 62.7581 40ZM25.5256 41.3791C23.6248 41.3791 22.0781 42.9249 22.0781 44.8266C22.0781 45.2077 22.3865 45.5161 22.7677 45.5161C23.1488 45.5161 23.4572 45.2077 23.4572 44.8266C23.4572 43.6859 24.3852 42.7579 25.5257 42.7579C26.6664 42.7579 27.5942 43.6859 27.5942 44.8266C27.5942 45.2077 27.9026 45.5161 28.2838 45.5161C28.665 45.5161 28.9732 45.2077 28.973 44.8266C28.973 42.9249 27.4263 41.3791 25.5256 41.3791Z" fill="#818EA1"></path>
  <path d="M22.7677 44.1406C22.3865 44.1406 22.0781 44.449 22.0781 44.8302V47.5881C22.0781 47.9692 22.3865 48.2776 22.7677 48.2776C23.1488 48.2776 23.4572 47.9692 23.4572 47.5881V44.8302C23.4572 44.449 23.1488 44.1406 22.7677 44.1406ZM28.2836 44.1406C27.9025 44.1406 27.5941 44.449 27.5941 44.8302V47.5881C27.5941 47.9692 27.9025 48.2776 28.2836 48.2776C28.6648 48.2776 28.973 47.9692 28.973 47.5881V44.8302C28.973 44.449 28.6646 44.1406 28.2836 44.1406ZM25.5256 45.5197C25.435 45.5197 25.3454 45.5375 25.2617 45.5721C25.1781 45.6067 25.102 45.6574 25.038 45.7214C24.974 45.7855 24.9232 45.8615 24.8886 45.9451C24.8539 46.0288 24.8361 46.1184 24.8362 46.209V47.5881C24.8362 47.9692 25.1446 48.2776 25.5256 48.2776C25.9067 48.2776 26.2151 47.9692 26.2151 47.5881V46.209C26.2152 46.1184 26.1974 46.0287 26.1628 45.945C26.1281 45.8614 26.0773 45.7854 26.0133 45.7213C25.9492 45.6573 25.8732 45.6066 25.7895 45.572C25.7058 45.5374 25.6161 45.5196 25.5256 45.5197Z" fill="#818EA1"></path>
  <path d="M22.7677 44.1406C22.3865 44.1406 22.0781 44.449 22.0781 44.8302V47.5881C22.0781 47.9692 22.3865 48.2776 22.7677 48.2776C23.1488 48.2776 23.4572 47.9692 23.4572 47.5881V44.8302C23.4572 44.449 23.1488 44.1406 22.7677 44.1406ZM28.2836 44.1406C27.9025 44.1406 27.5941 44.449 27.5941 44.8302V47.5881C27.5941 47.9692 27.9025 48.2776 28.2836 48.2776C28.6648 48.2776 28.973 47.9692 28.973 47.5881V44.8302C28.973 44.449 28.6646 44.1406 28.2836 44.1406ZM25.5256 45.5197C25.435 45.5197 25.3454 45.5375 25.2617 45.5721C25.1781 45.6067 25.102 45.6574 25.038 45.7214C24.974 45.7855 24.9232 45.8615 24.8886 45.9451C24.8539 46.0288 24.8361 46.1184 24.8362 46.209V47.5881C24.8362 47.9692 25.1446 48.2776 25.5256 48.2776C25.9067 48.2776 26.2151 47.9692 26.2151 47.5881V46.209C26.2152 46.1184 26.1974 46.0287 26.1628 45.945C26.1281 45.8614 26.0773 45.7854 26.0133 45.7213C25.9492 45.6573 25.8732 45.6066 25.7895 45.572C25.7058 45.5374 25.6161 45.5196 25.5256 45.5197Z" fill="#818EA1"></path>
  <path d="M28.272 44.1258H22.7561C22.3749 44.1258 22.0665 44.4342 22.0665 44.8153C22.0665 45.1965 22.3749 45.5049 22.7561 45.5049H28.272C28.6532 45.5049 28.9614 45.1965 28.9614 44.8153C28.9614 44.4342 28.653 44.1258 28.272 44.1258ZM25.514 39.9888C25.4234 39.9887 25.3337 40.0065 25.2501 40.0412C25.1664 40.0758 25.0904 40.1266 25.0263 40.1906C24.9623 40.2547 24.9115 40.3307 24.8769 40.4144C24.8423 40.4981 24.8245 40.5878 24.8246 40.6783V42.0574C24.8246 42.148 24.8424 42.2376 24.877 42.3213C24.9117 42.4049 24.9624 42.4809 25.0265 42.5449C25.0905 42.6089 25.1665 42.6597 25.2501 42.6943C25.3338 42.7289 25.4234 42.7467 25.514 42.7466C25.8951 42.7466 26.2035 42.4382 26.2035 42.0574V40.6783C26.2035 40.2972 25.8951 39.9888 25.514 39.9888ZM18.6192 46.8835C18.2381 46.8835 17.9297 47.1919 17.9297 47.573V50.1154C17.9297 50.4966 18.2381 50.805 18.6192 50.805C18.7098 50.805 18.7995 50.7872 18.8832 50.7526C18.9668 50.7179 19.0429 50.6671 19.1069 50.6031C19.1709 50.539 19.2217 50.463 19.2564 50.3793C19.291 50.2957 19.3088 50.206 19.3088 50.1154V47.573C19.3088 47.1919 19.0002 46.8835 18.6192 46.8835ZM69.6412 46.8835C69.5507 46.8835 69.461 46.9013 69.3774 46.9359C69.2937 46.9706 69.2177 47.0214 69.1537 47.0854C69.0897 47.1495 69.0389 47.2255 69.0043 47.3092C68.9697 47.3928 68.9519 47.4825 68.952 47.573V50.1154C68.952 50.4966 69.2604 50.805 69.6412 50.805C70.0224 50.805 70.3308 50.4966 70.3308 50.1154V47.573C70.3308 47.1919 70.0224 46.8835 69.6412 46.8835ZM61.0188 24.1219C57.6319 14.2745 44.9478 8.56922 44.4091 8.33098C44.0615 8.18014 43.6543 8.33564 43.5001 8.683C43.4634 8.76576 43.4434 8.85493 43.4413 8.94542C43.4391 9.0359 43.4548 9.12593 43.4874 9.21035C43.5201 9.29477 43.569 9.37192 43.6315 9.43741C43.694 9.5029 43.7688 9.55543 43.8516 9.59201C43.9774 9.64855 56.5248 15.2966 59.715 24.5702C62.2133 31.834 56.7484 38.7991 56.6918 38.8684C56.578 39.0113 56.5255 39.1935 56.5457 39.3751C56.5658 39.5566 56.6571 39.7228 56.7996 39.8372C56.8702 39.8939 56.9514 39.9362 57.0384 39.9615C57.1254 39.9868 57.2165 39.9947 57.3066 39.9848C57.3966 39.9749 57.4839 39.9473 57.5632 39.9036C57.6426 39.86 57.7126 39.8011 57.7693 39.7304C58.0144 39.4232 63.7672 32.1137 61.0188 24.1219Z" fill="#818EA1"></path>
  <path d="M28.272 44.1258H22.7561C22.3749 44.1258 22.0665 44.4342 22.0665 44.8153C22.0665 45.1965 22.3749 45.5049 22.7561 45.5049H28.272C28.6532 45.5049 28.9614 45.1965 28.9614 44.8153C28.9614 44.4342 28.653 44.1258 28.272 44.1258ZM25.514 39.9888C25.4234 39.9887 25.3337 40.0065 25.2501 40.0412C25.1664 40.0758 25.0904 40.1266 25.0263 40.1906C24.9623 40.2547 24.9115 40.3307 24.8769 40.4144C24.8423 40.4981 24.8245 40.5878 24.8246 40.6783V42.0574C24.8246 42.148 24.8424 42.2376 24.877 42.3213C24.9117 42.4049 24.9624 42.4809 25.0265 42.5449C25.0905 42.6089 25.1665 42.6597 25.2501 42.6943C25.3338 42.7289 25.4234 42.7467 25.514 42.7466C25.8951 42.7466 26.2035 42.4382 26.2035 42.0574V40.6783C26.2035 40.2972 25.8951 39.9888 25.514 39.9888ZM18.6192 46.8835C18.2381 46.8835 17.9297 47.1919 17.9297 47.573V50.1154C17.9297 50.4966 18.2381 50.805 18.6192 50.805C18.7098 50.805 18.7995 50.7872 18.8832 50.7526C18.9668 50.7179 19.0429 50.6671 19.1069 50.6031C19.1709 50.539 19.2217 50.463 19.2564 50.3793C19.291 50.2957 19.3088 50.206 19.3088 50.1154V47.573C19.3088 47.1919 19.0002 46.8835 18.6192 46.8835ZM69.6412 46.8835C69.5507 46.8835 69.461 46.9013 69.3774 46.9359C69.2937 46.9706 69.2177 47.0214 69.1537 47.0854C69.0897 47.1495 69.0389 47.2255 69.0043 47.3092C68.9697 47.3928 68.9519 47.4825 68.952 47.573V50.1154C68.952 50.4966 69.2604 50.805 69.6412 50.805C70.0224 50.805 70.3308 50.4966 70.3308 50.1154V47.573C70.3308 47.1919 70.0224 46.8835 69.6412 46.8835ZM61.0188 24.1219C57.6319 14.2745 44.9478 8.56922 44.4091 8.33098C44.0615 8.18014 43.6543 8.33564 43.5001 8.683C43.4634 8.76576 43.4434 8.85493 43.4413 8.94542C43.4391 9.0359 43.4548 9.12593 43.4874 9.21035C43.5201 9.29477 43.569 9.37192 43.6315 9.43741C43.694 9.5029 43.7688 9.55543 43.8516 9.59201C43.9774 9.64855 56.5248 15.2966 59.715 24.5702C62.2133 31.834 56.7484 38.7991 56.6918 38.8684C56.578 39.0113 56.5255 39.1935 56.5457 39.3751C56.5658 39.5566 56.6571 39.7228 56.7996 39.8372C56.8702 39.8939 56.9514 39.9362 57.0384 39.9615C57.1254 39.9868 57.2165 39.9947 57.3066 39.9848C57.3966 39.9749 57.4839 39.9473 57.5632 39.9036C57.6426 39.86 57.7126 39.8011 57.7693 39.7304C58.0144 39.4232 63.7672 32.1137 61.0188 24.1219Z" fill="#818EA1"></path>
  <path d="M44.7144 8.68397C44.6404 8.51689 44.5031 8.386 44.3327 8.32001C44.1623 8.25401 43.9727 8.25831 43.8054 8.33195C43.2667 8.57019 30.5818 14.2754 27.1955 24.1228C24.4464 32.1146 30.1992 39.4243 30.4457 39.7313C30.5102 39.8122 30.592 39.8774 30.6852 39.9222C30.7783 39.967 30.8804 39.9901 30.9838 39.9899C31.1353 39.9899 31.2875 39.9401 31.4142 39.8382C31.557 39.7241 31.6487 39.5579 31.669 39.3762C31.6893 39.1946 31.6367 39.0123 31.5227 38.8694C31.4666 38.8001 26.0012 31.8352 28.4993 24.5712C31.6888 15.2974 44.2371 9.64952 44.3629 9.59298C44.4457 9.5564 44.5205 9.50387 44.583 9.43838C44.6454 9.37289 44.6944 9.29574 44.727 9.21132C44.7597 9.1269 44.7754 9.03687 44.7732 8.94639C44.7711 8.8559 44.7511 8.76673 44.7144 8.68397Z" fill="#818EA1"></path>
  <path d="M44.7144 8.68397C44.6404 8.51689 44.5031 8.386 44.3327 8.32001C44.1623 8.25401 43.9727 8.25831 43.8054 8.33195C43.2667 8.57019 30.5818 14.2754 27.1955 24.1228C24.4464 32.1146 30.1992 39.4243 30.4457 39.7313C30.5102 39.8122 30.592 39.8774 30.6852 39.9222C30.7783 39.967 30.8804 39.9901 30.9838 39.9899C31.1353 39.9899 31.2875 39.9401 31.4142 39.8382C31.557 39.7241 31.6487 39.5579 31.669 39.3762C31.6893 39.1946 31.6367 39.0123 31.5227 38.8694C31.4666 38.8001 26.0012 31.8352 28.4993 24.5712C31.6888 15.2974 44.2371 9.64952 44.3629 9.59298C44.4457 9.5564 44.5205 9.50387 44.583 9.43838C44.6454 9.37289 44.6944 9.29574 44.727 9.21132C44.7597 9.1269 44.7754 9.03687 44.7732 8.94639C44.7711 8.8559 44.7511 8.76673 44.7144 8.68397Z" fill="#818EA1"></path>
  <path d="M44.1181 0C43.7369 0 43.4285 0.308405 43.4285 0.689558V8.96339C43.4285 9.34455 43.7371 9.65295 44.1181 9.65295C44.4992 9.65295 44.8076 9.34455 44.8076 8.96339V0.689558C44.8076 0.308405 44.4992 0 44.1181 0ZM57.2183 31.7162H31.0177C30.6365 31.7162 30.3281 32.0246 30.3281 32.4058C30.3281 32.7869 30.6365 33.0953 31.0177 33.0953H57.2183C57.5995 33.0953 57.9079 32.7869 57.9079 32.4058C57.9079 32.0246 57.5995 31.7162 57.2183 31.7162ZM55.8395 34.4745H32.3966C32.0156 34.4745 31.7072 34.7829 31.7072 35.164C31.7072 35.5452 32.0156 35.8536 32.3966 35.8536H55.8395C56.2203 35.8536 56.5287 35.5452 56.5287 35.164C56.5287 34.7829 56.2203 34.4745 55.8395 34.4745ZM47.5655 12.4108H40.6706C40.2895 12.4108 39.9811 12.7192 39.9811 13.1004C39.9811 13.4814 40.2897 13.7898 40.6706 13.7898H47.5655C47.9467 13.7898 48.2551 13.4815 48.2551 13.1004C48.2551 12.7192 47.9467 12.4108 47.5655 12.4108Z" fill="#818EA1"></path>
  <path d="M44.1181 0C43.7369 0 43.4285 0.308405 43.4285 0.689558V8.96339C43.4285 9.34455 43.7371 9.65295 44.1181 9.65295C44.4992 9.65295 44.8076 9.34455 44.8076 8.96339V0.689558C44.8076 0.308405 44.4992 0 44.1181 0ZM57.2183 31.7162H31.0177C30.6365 31.7162 30.3281 32.0246 30.3281 32.4058C30.3281 32.7869 30.6365 33.0953 31.0177 33.0953H57.2183C57.5995 33.0953 57.9079 32.7869 57.9079 32.4058C57.9079 32.0246 57.5995 31.7162 57.2183 31.7162ZM55.8395 34.4745H32.3966C32.0156 34.4745 31.7072 34.7829 31.7072 35.164C31.7072 35.5452 32.0156 35.8536 32.3966 35.8536H55.8395C56.2203 35.8536 56.5287 35.5452 56.5287 35.164C56.5287 34.7829 56.2203 34.4745 55.8395 34.4745ZM47.5655 12.4108H40.6706C40.2895 12.4108 39.9811 12.7192 39.9811 13.1004C39.9811 13.4814 40.2897 13.7898 40.6706 13.7898H47.5655C47.9467 13.7898 48.2551 13.4815 48.2551 13.1004C48.2551 12.7192 47.9467 12.4108 47.5655 12.4108Z" fill="#818EA1"></path>
  <path d="M33.7851 33.7813C33.4039 33.7813 33.0955 34.0898 33.0955 34.4708V35.1604C33.0955 35.5415 33.4041 35.8499 33.7851 35.8499C33.8756 35.8499 33.9653 35.8321 34.049 35.7975C34.1327 35.7628 34.2087 35.712 34.2727 35.648C34.3367 35.584 34.3875 35.5079 34.4222 35.4243C34.4568 35.3406 34.4747 35.2509 34.4746 35.1604V34.4708C34.4746 34.0897 34.1662 33.7813 33.7851 33.7813ZM37.9219 33.7813C37.5408 33.7813 37.2323 34.0898 37.2323 34.4708V35.1604C37.2323 35.5415 37.5408 35.8499 37.9219 35.8499C38.3031 35.8499 38.6115 35.5415 38.6115 35.1604V34.4708C38.6115 34.0897 38.3031 33.7813 37.9219 33.7813ZM42.0589 33.7813C41.6778 33.7813 41.3694 34.0898 41.3694 34.4708V35.1604C41.3694 35.5415 41.6778 35.8499 42.0589 35.8499C42.4401 35.8499 42.7483 35.5415 42.7483 35.1604V34.4708C42.7483 34.0897 42.4399 33.7813 42.0589 33.7813ZM46.1957 33.7813C46.1052 33.7812 46.0155 33.799 45.9319 33.8337C45.8482 33.8683 45.7722 33.9191 45.7082 33.9832C45.6442 34.0472 45.5935 34.1233 45.5588 34.2069C45.5242 34.2906 45.5065 34.3803 45.5065 34.4708V35.1604C45.5065 35.5415 45.8146 35.8499 46.1957 35.8499C46.5769 35.8499 46.8853 35.5415 46.8853 35.1604V34.4708C46.8853 34.0897 46.5769 33.7813 46.1957 33.7813ZM50.3327 33.7813C49.9516 33.7813 49.6432 34.0898 49.6432 34.4708V35.1604C49.6432 35.5415 49.9516 35.8499 50.3327 35.8499C50.7139 35.8499 51.0223 35.5415 51.0223 35.1604V34.4708C51.0223 34.0897 50.7139 33.7813 50.3327 33.7813ZM54.4697 33.7813C54.0886 33.7813 53.7802 34.0898 53.7802 34.4708V35.1604C53.7802 35.5415 54.0886 35.8499 54.4697 35.8499C54.8509 35.8499 55.1593 35.5415 55.1593 35.1604V34.4708C55.1593 34.0897 54.8509 33.7813 54.4697 33.7813ZM87.5653 78.5984H0.689558C0.308405 78.5984 0 78.9068 0 79.288C0 79.6691 0.308405 79.9772 0.689558 79.9772H87.5653C87.9464 79.9772 88.2548 79.6691 88.2548 79.288C88.2548 78.9068 87.9464 78.5984 87.5653 78.5984Z" fill="#818EA1"></path>
  <path d="M33.7851 33.7813C33.4039 33.7813 33.0955 34.0898 33.0955 34.4708V35.1604C33.0955 35.5415 33.4041 35.8499 33.7851 35.8499C33.8756 35.8499 33.9653 35.8321 34.049 35.7975C34.1327 35.7628 34.2087 35.712 34.2727 35.648C34.3367 35.584 34.3875 35.5079 34.4222 35.4243C34.4568 35.3406 34.4747 35.2509 34.4746 35.1604V34.4708C34.4746 34.0897 34.1662 33.7813 33.7851 33.7813ZM37.9219 33.7813C37.5408 33.7813 37.2323 34.0898 37.2323 34.4708V35.1604C37.2323 35.5415 37.5408 35.8499 37.9219 35.8499C38.3031 35.8499 38.6115 35.5415 38.6115 35.1604V34.4708C38.6115 34.0897 38.3031 33.7813 37.9219 33.7813ZM42.0589 33.7813C41.6778 33.7813 41.3694 34.0898 41.3694 34.4708V35.1604C41.3694 35.5415 41.6778 35.8499 42.0589 35.8499C42.4401 35.8499 42.7483 35.5415 42.7483 35.1604V34.4708C42.7483 34.0897 42.4399 33.7813 42.0589 33.7813ZM46.1957 33.7813C46.1052 33.7812 46.0155 33.799 45.9319 33.8337C45.8482 33.8683 45.7722 33.9191 45.7082 33.9832C45.6442 34.0472 45.5935 34.1233 45.5588 34.2069C45.5242 34.2906 45.5065 34.3803 45.5065 34.4708V35.1604C45.5065 35.5415 45.8146 35.8499 46.1957 35.8499C46.5769 35.8499 46.8853 35.5415 46.8853 35.1604V34.4708C46.8853 34.0897 46.5769 33.7813 46.1957 33.7813ZM50.3327 33.7813C49.9516 33.7813 49.6432 34.0898 49.6432 34.4708V35.1604C49.6432 35.5415 49.9516 35.8499 50.3327 35.8499C50.7139 35.8499 51.0223 35.5415 51.0223 35.1604V34.4708C51.0223 34.0897 50.7139 33.7813 50.3327 33.7813ZM54.4697 33.7813C54.0886 33.7813 53.7802 34.0898 53.7802 34.4708V35.1604C53.7802 35.5415 54.0886 35.8499 54.4697 35.8499C54.8509 35.8499 55.1593 35.5415 55.1593 35.1604V34.4708C55.1593 34.0897 54.8509 33.7813 54.4697 33.7813ZM87.5653 78.5984H0.689558C0.308405 78.5984 0 78.9068 0 79.288C0 79.6691 0.308405 79.9772 0.689558 79.9772H87.5653C87.9464 79.9772 88.2548 79.6691 88.2548 79.288C88.2548 78.9068 87.9464 78.5984 87.5653 78.5984Z" fill="#818EA1"></path>
  <path d="M0.689731 74.4515C0.308577 74.4515 0.00017239 74.7599 0.00017239 75.1411V79.2782C0.00017239 79.6594 0.308577 79.9675 0.689731 79.9675C1.07088 79.9675 1.37912 79.6592 1.37929 79.2781V75.1411C1.37929 74.7599 1.07088 74.4515 0.689731 74.4515ZM87.5654 74.4515C87.1843 74.4515 86.8759 74.7599 86.8759 75.1411V79.2782C86.8759 79.6594 87.1843 79.9675 87.5654 79.9675C87.9466 79.9675 88.255 79.6592 88.255 79.2781V75.1411C88.255 74.7599 87.9466 74.4515 87.5654 74.4515ZM4.82656 39.9771H0.689558C0.308405 39.9771 0 40.2855 0 40.6666V72.3832C0 72.7643 0.308405 73.0727 0.689558 73.0727C1.07071 73.0727 1.37912 72.7643 1.37912 72.3832V41.3562H4.137V72.3832C4.137 72.7643 4.44558 73.0727 4.82656 73.0727C5.20772 73.0727 5.51612 72.7643 5.51612 72.3832V40.6666C5.51612 40.2855 5.20754 39.9771 4.82656 39.9771ZM11.7216 51.0088H8.96357C8.58241 51.0088 8.27401 51.3172 8.27401 51.6983V72.383C8.27401 72.7642 8.58241 73.0726 8.96357 73.0726C9.34472 73.0726 9.65312 72.7642 9.65312 72.383V52.3879H11.0321V72.383C11.0321 72.7642 11.3406 73.0726 11.7216 73.0726C11.8122 73.0726 11.9019 73.0548 11.9855 73.0201C12.0692 72.9855 12.1452 72.9347 12.2093 72.8707C12.2733 72.8066 12.3241 72.7306 12.3587 72.6469C12.3934 72.5632 12.4112 72.4736 12.4112 72.383V51.6983C12.4112 51.3172 12.1026 51.0088 11.7216 51.0088ZM5.50733 36.9975C5.39424 35.5801 4.20458 34.4609 2.75823 34.4609C1.23707 34.4609 0.00017239 35.698 0.00017239 37.219C0.00017239 37.6002 0.308577 37.9086 0.689731 37.9086H4.82673C4.83622 37.9072 4.84415 37.9079 4.85432 37.9086C4.96389 37.9086 5.07188 37.8824 5.16935 37.8324C5.26682 37.7823 5.35095 37.7098 5.41478 37.6207C5.47862 37.5317 5.52031 37.4287 5.5364 37.3203C5.55249 37.2119 5.54253 37.1012 5.50733 36.9975ZM1.56426 36.5296C1.68519 36.32 1.8592 36.1458 2.06878 36.0248C2.27836 35.9037 2.51612 35.84 2.75815 35.84C3.00018 35.84 3.23794 35.9037 3.44752 36.0248C3.6571 36.1458 3.8311 36.32 3.95203 36.5296H1.56426Z" fill="#818EA1"></path>
  <path d="M0.689731 74.4515C0.308577 74.4515 0.00017239 74.7599 0.00017239 75.1411V79.2782C0.00017239 79.6594 0.308577 79.9675 0.689731 79.9675C1.07088 79.9675 1.37912 79.6592 1.37929 79.2781V75.1411C1.37929 74.7599 1.07088 74.4515 0.689731 74.4515ZM87.5654 74.4515C87.1843 74.4515 86.8759 74.7599 86.8759 75.1411V79.2782C86.8759 79.6594 87.1843 79.9675 87.5654 79.9675C87.9466 79.9675 88.255 79.6592 88.255 79.2781V75.1411C88.255 74.7599 87.9466 74.4515 87.5654 74.4515ZM4.82656 39.9771H0.689558C0.308405 39.9771 0 40.2855 0 40.6666V72.3832C0 72.7643 0.308405 73.0727 0.689558 73.0727C1.07071 73.0727 1.37912 72.7643 1.37912 72.3832V41.3562H4.137V72.3832C4.137 72.7643 4.44558 73.0727 4.82656 73.0727C5.20772 73.0727 5.51612 72.7643 5.51612 72.3832V40.6666C5.51612 40.2855 5.20754 39.9771 4.82656 39.9771ZM11.7216 51.0088H8.96357C8.58241 51.0088 8.27401 51.3172 8.27401 51.6983V72.383C8.27401 72.7642 8.58241 73.0726 8.96357 73.0726C9.34472 73.0726 9.65312 72.7642 9.65312 72.383V52.3879H11.0321V72.383C11.0321 72.7642 11.3406 73.0726 11.7216 73.0726C11.8122 73.0726 11.9019 73.0548 11.9855 73.0201C12.0692 72.9855 12.1452 72.9347 12.2093 72.8707C12.2733 72.8066 12.3241 72.7306 12.3587 72.6469C12.3934 72.5632 12.4112 72.4736 12.4112 72.383V51.6983C12.4112 51.3172 12.1026 51.0088 11.7216 51.0088ZM5.50733 36.9975C5.39424 35.5801 4.20458 34.4609 2.75823 34.4609C1.23707 34.4609 0.00017239 35.698 0.00017239 37.219C0.00017239 37.6002 0.308577 37.9086 0.689731 37.9086H4.82673C4.83622 37.9072 4.84415 37.9079 4.85432 37.9086C4.96389 37.9086 5.07188 37.8824 5.16935 37.8324C5.26682 37.7823 5.35095 37.7098 5.41478 37.6207C5.47862 37.5317 5.52031 37.4287 5.5364 37.3203C5.55249 37.2119 5.54253 37.1012 5.50733 36.9975ZM1.56426 36.5296C1.68519 36.32 1.8592 36.1458 2.06878 36.0248C2.27836 35.9037 2.51612 35.84 2.75815 35.84C3.00018 35.84 3.23794 35.9037 3.44752 36.0248C3.6571 36.1458 3.8311 36.32 3.95203 36.5296H1.56426Z" fill="#818EA1"></path>
  <path d="M2.75806 38.6099C2.37691 38.6099 2.0685 38.9183 2.0685 39.2994V40.6784C2.0685 41.0595 2.37691 41.3679 2.75806 41.3679C2.84862 41.368 2.9383 41.3502 3.02197 41.3155C3.10564 41.2809 3.18167 41.2301 3.24569 41.1661C3.30972 41.102 3.36049 41.026 3.39511 40.9423C3.42973 40.8586 3.44751 40.7689 3.44745 40.6784V39.2994C3.44745 38.9183 3.13904 38.6099 2.75806 38.6099ZM0.689558 38.6099C0.308405 38.6099 0 38.9183 0 39.2994V40.6784C0 41.0595 0.308405 41.3679 0.689558 41.3679C1.07071 41.3679 1.37894 41.0595 1.37912 40.6784V39.2994C1.37912 38.9183 1.07071 38.6099 0.689558 38.6099ZM4.82639 38.6099C4.44524 38.6099 4.13683 38.9183 4.13683 39.2994V40.6784C4.13683 41.0595 4.44541 41.3679 4.82639 41.3679C5.20754 41.3679 5.51595 41.0595 5.51595 40.6784V39.2994C5.51595 38.9183 5.20754 38.6099 4.82639 38.6099ZM2.75806 33.0938C2.37691 33.0938 2.0685 33.4023 2.0685 33.7833V35.1624C2.0685 35.5436 2.37691 35.852 2.75806 35.852C2.84862 35.852 2.9383 35.8342 3.02197 35.7996C3.10564 35.7649 3.18167 35.7141 3.24569 35.6501C3.30972 35.5861 3.36049 35.51 3.39511 35.4263C3.42973 35.3427 3.44751 35.253 3.44745 35.1624V33.7833C3.44745 33.4022 3.13904 33.0938 2.75806 33.0938ZM10.3423 46.8835C9.20164 46.8835 8.27384 47.8115 8.27384 48.9522C8.27384 49.333 8.58224 49.6414 8.9634 49.6414C9.34455 49.6414 9.65295 49.333 9.65295 48.9522C9.65295 48.5724 9.96188 48.2626 10.3423 48.2626C10.7228 48.2626 11.0319 48.5724 11.0319 48.9522C11.0319 49.0427 11.0497 49.1324 11.0844 49.216C11.1191 49.2997 11.1699 49.3757 11.2339 49.4397C11.2979 49.5037 11.3739 49.5544 11.4576 49.5891C11.5413 49.6237 11.6309 49.6415 11.7215 49.6414C11.812 49.6415 11.9016 49.6237 11.9853 49.5891C12.0689 49.5544 12.1449 49.5037 12.209 49.4397C12.273 49.3757 12.3238 49.2997 12.3584 49.216C12.393 49.1324 12.4109 49.0427 12.4108 48.9522C12.4108 47.8115 11.483 46.8835 10.3423 46.8835Z" fill="#818EA1"></path>
  <path d="M2.75806 38.6099C2.37691 38.6099 2.0685 38.9183 2.0685 39.2994V40.6784C2.0685 41.0595 2.37691 41.3679 2.75806 41.3679C2.84862 41.368 2.9383 41.3502 3.02197 41.3155C3.10564 41.2809 3.18167 41.2301 3.24569 41.1661C3.30972 41.102 3.36049 41.026 3.39511 40.9423C3.42973 40.8586 3.44751 40.7689 3.44745 40.6784V39.2994C3.44745 38.9183 3.13904 38.6099 2.75806 38.6099ZM0.689558 38.6099C0.308405 38.6099 0 38.9183 0 39.2994V40.6784C0 41.0595 0.308405 41.3679 0.689558 41.3679C1.07071 41.3679 1.37894 41.0595 1.37912 40.6784V39.2994C1.37912 38.9183 1.07071 38.6099 0.689558 38.6099ZM4.82639 38.6099C4.44524 38.6099 4.13683 38.9183 4.13683 39.2994V40.6784C4.13683 41.0595 4.44541 41.3679 4.82639 41.3679C5.20754 41.3679 5.51595 41.0595 5.51595 40.6784V39.2994C5.51595 38.9183 5.20754 38.6099 4.82639 38.6099ZM2.75806 33.0938C2.37691 33.0938 2.0685 33.4023 2.0685 33.7833V35.1624C2.0685 35.5436 2.37691 35.852 2.75806 35.852C2.84862 35.852 2.9383 35.8342 3.02197 35.7996C3.10564 35.7649 3.18167 35.7141 3.24569 35.6501C3.30972 35.5861 3.36049 35.51 3.39511 35.4263C3.42973 35.3427 3.44751 35.253 3.44745 35.1624V33.7833C3.44745 33.4022 3.13904 33.0938 2.75806 33.0938ZM10.3423 46.8835C9.20164 46.8835 8.27384 47.8115 8.27384 48.9522C8.27384 49.333 8.58224 49.6414 8.9634 49.6414C9.34455 49.6414 9.65295 49.333 9.65295 48.9522C9.65295 48.5724 9.96188 48.2626 10.3423 48.2626C10.7228 48.2626 11.0319 48.5724 11.0319 48.9522C11.0319 49.0427 11.0497 49.1324 11.0844 49.216C11.1191 49.2997 11.1699 49.3757 11.2339 49.4397C11.2979 49.5037 11.3739 49.5544 11.4576 49.5891C11.5413 49.6237 11.6309 49.6415 11.7215 49.6414C11.812 49.6415 11.9016 49.6237 11.9853 49.5891C12.0689 49.5544 12.1449 49.5037 12.209 49.4397C12.273 49.3757 12.3238 49.2997 12.3584 49.216C12.393 49.1324 12.4109 49.0427 12.4108 48.9522C12.4108 47.8115 11.483 46.8835 10.3423 46.8835Z" fill="#818EA1"></path>
  <path d="M8.96339 49.6297C8.58224 49.6297 8.27384 49.9381 8.27384 50.3192V51.6983C8.27384 52.0795 8.58224 52.3879 8.96339 52.3879C9.34455 52.3879 9.65295 52.0795 9.65295 51.6983V50.3192C9.65295 49.9381 9.34455 49.6297 8.96339 49.6297ZM11.7215 49.6297C11.3403 49.6297 11.0319 49.9381 11.0319 50.3192V51.6983C11.0319 52.0795 11.3405 52.3879 11.7215 52.3879C11.812 52.3879 11.9017 52.3701 11.9854 52.3355C12.069 52.3008 12.1451 52.25 12.2091 52.186C12.2731 52.1219 12.3239 52.0459 12.3586 51.9622C12.3932 51.8786 12.411 51.7889 12.411 51.6983V50.3192C12.411 49.9381 12.1026 49.6297 11.7215 49.6297ZM10.3423 45.4932C10.2518 45.4931 10.1621 45.5109 10.0785 45.5455C9.99482 45.5801 9.9188 45.6309 9.85478 45.6949C9.79075 45.7589 9.73997 45.8349 9.70534 45.9185C9.67071 46.0022 9.65291 46.0919 9.65295 46.1824V47.5615C9.65295 47.9427 9.96136 48.2511 10.3423 48.2511C10.7235 48.2511 11.0319 47.9427 11.0319 47.5615V46.1824C11.032 46.0918 11.0142 46.0022 10.9795 45.9185C10.9449 45.8348 10.8941 45.7588 10.8301 45.6948C10.766 45.6308 10.69 45.58 10.6063 45.5454C10.5226 45.5108 10.4329 45.4931 10.3423 45.4932ZM4.82656 49.6297H0.689558C0.308405 49.6297 0 49.9381 0 50.3192C0 50.7004 0.308405 51.0088 0.689558 51.0088H4.82639C5.20754 51.0088 5.51612 50.7004 5.51612 50.3192C5.51612 49.9381 5.20754 49.6297 4.82656 49.6297ZM4.82656 59.283H0.689558C0.308405 59.283 0 59.591 0 59.9722C0 60.3533 0.308405 60.6617 0.689558 60.6617H4.82639C5.00923 60.6618 5.18458 60.5891 5.31388 60.4599C5.44319 60.3306 5.51584 60.1553 5.51586 59.9724C5.51588 59.7896 5.44328 59.6142 5.31401 59.4849C5.18474 59.3556 5.0094 59.283 4.82656 59.283ZM11.7215 56.5247H8.96339C8.58224 56.5247 8.27384 56.8331 8.27384 57.2143C8.27384 57.5954 8.58224 57.9038 8.96339 57.9038H11.7215C12.1024 57.9038 12.411 57.5954 12.411 57.2143C12.411 56.8331 12.1024 56.5247 11.7215 56.5247ZM11.7215 62.0408H8.96339C8.58224 62.0408 8.27384 62.3492 8.27384 62.7304C8.27381 62.8209 8.29164 62.9106 8.32629 62.9943C8.36094 63.0779 8.41173 63.1539 8.47577 63.2179C8.53981 63.2819 8.61584 63.3327 8.69951 63.3673C8.78318 63.4019 8.87285 63.4197 8.96339 63.4196H11.7215C11.9043 63.4196 12.0796 63.347 12.2089 63.2177C12.3382 63.0884 12.4108 62.9131 12.4108 62.7302C12.4108 62.5474 12.3382 62.372 12.2089 62.2428C12.0796 62.1135 11.9043 62.0408 11.7215 62.0408ZM87.5653 39.9771H83.4283C83.3377 39.977 83.2481 39.9949 83.1644 40.0295C83.0808 40.0642 83.0048 40.115 82.9407 40.179C82.8767 40.243 82.826 40.3191 82.7914 40.4027C82.7568 40.4864 82.739 40.5761 82.739 40.6666V72.3832C82.739 72.7643 83.0475 73.0727 83.4283 73.0727C83.8094 73.0727 84.1178 72.7643 84.1178 72.3832V41.3562H86.8757V72.3832C86.8757 72.7643 87.1841 73.0727 87.5653 73.0727C87.9464 73.0727 88.2548 72.7643 88.2548 72.3832V40.6666C88.2548 40.2855 87.9464 39.9771 87.5653 39.9771ZM79.2914 51.0088H76.5332C76.4427 51.0088 76.353 51.0266 76.2693 51.0612C76.1857 51.0959 76.1097 51.1467 76.0457 51.2107C75.9817 51.2748 75.9309 51.3508 75.8963 51.4345C75.8617 51.5181 75.8439 51.6078 75.844 51.6983V72.383C75.844 72.7642 76.1524 73.0726 76.5332 73.0726C76.9143 73.0726 77.2228 72.7642 77.2228 72.383V52.3879H78.6019V72.383C78.6019 72.7642 78.9103 73.0726 79.2914 73.0726C79.6726 73.0726 79.9808 72.7642 79.9806 72.383V51.6983C79.9806 51.3172 79.6726 51.0088 79.2914 51.0088ZM85.4969 34.4609C83.9751 34.4609 82.739 35.698 82.739 37.219C82.739 37.6002 83.0475 37.9086 83.4283 37.9086H87.5653C87.9464 37.9086 88.2548 37.6002 88.2548 37.219C88.2548 35.6978 87.0184 34.4609 85.4969 34.4609ZM84.3037 36.5296C84.4244 36.32 84.5983 36.1459 84.8077 36.0248C85.0172 35.9037 85.2548 35.84 85.4968 35.84C85.7387 35.84 85.9763 35.9037 86.1858 36.0248C86.3953 36.1459 86.5691 36.32 86.6899 36.5296H84.3037Z" fill="#818EA1"></path>
  <path d="M8.96339 49.6297C8.58224 49.6297 8.27384 49.9381 8.27384 50.3192V51.6983C8.27384 52.0795 8.58224 52.3879 8.96339 52.3879C9.34455 52.3879 9.65295 52.0795 9.65295 51.6983V50.3192C9.65295 49.9381 9.34455 49.6297 8.96339 49.6297ZM11.7215 49.6297C11.3403 49.6297 11.0319 49.9381 11.0319 50.3192V51.6983C11.0319 52.0795 11.3405 52.3879 11.7215 52.3879C11.812 52.3879 11.9017 52.3701 11.9854 52.3355C12.069 52.3008 12.1451 52.25 12.2091 52.186C12.2731 52.1219 12.3239 52.0459 12.3586 51.9622C12.3932 51.8786 12.411 51.7889 12.411 51.6983V50.3192C12.411 49.9381 12.1026 49.6297 11.7215 49.6297ZM10.3423 45.4932C10.2518 45.4931 10.1621 45.5109 10.0785 45.5455C9.99482 45.5801 9.9188 45.6309 9.85478 45.6949C9.79075 45.7589 9.73997 45.8349 9.70534 45.9185C9.67071 46.0022 9.65291 46.0919 9.65295 46.1824V47.5615C9.65295 47.9427 9.96136 48.2511 10.3423 48.2511C10.7235 48.2511 11.0319 47.9427 11.0319 47.5615V46.1824C11.032 46.0918 11.0142 46.0022 10.9795 45.9185C10.9449 45.8348 10.8941 45.7588 10.8301 45.6948C10.766 45.6308 10.69 45.58 10.6063 45.5454C10.5226 45.5108 10.4329 45.4931 10.3423 45.4932ZM4.82656 49.6297H0.689558C0.308405 49.6297 0 49.9381 0 50.3192C0 50.7004 0.308405 51.0088 0.689558 51.0088H4.82639C5.20754 51.0088 5.51612 50.7004 5.51612 50.3192C5.51612 49.9381 5.20754 49.6297 4.82656 49.6297ZM4.82656 59.283H0.689558C0.308405 59.283 0 59.591 0 59.9722C0 60.3533 0.308405 60.6617 0.689558 60.6617H4.82639C5.00923 60.6618 5.18458 60.5891 5.31388 60.4599C5.44319 60.3306 5.51584 60.1553 5.51586 59.9724C5.51588 59.7896 5.44328 59.6142 5.31401 59.4849C5.18474 59.3556 5.0094 59.283 4.82656 59.283ZM11.7215 56.5247H8.96339C8.58224 56.5247 8.27384 56.8331 8.27384 57.2143C8.27384 57.5954 8.58224 57.9038 8.96339 57.9038H11.7215C12.1024 57.9038 12.411 57.5954 12.411 57.2143C12.411 56.8331 12.1024 56.5247 11.7215 56.5247ZM11.7215 62.0408H8.96339C8.58224 62.0408 8.27384 62.3492 8.27384 62.7304C8.27381 62.8209 8.29164 62.9106 8.32629 62.9943C8.36094 63.0779 8.41173 63.1539 8.47577 63.2179C8.53981 63.2819 8.61584 63.3327 8.69951 63.3673C8.78318 63.4019 8.87285 63.4197 8.96339 63.4196H11.7215C11.9043 63.4196 12.0796 63.347 12.2089 63.2177C12.3382 63.0884 12.4108 62.9131 12.4108 62.7302C12.4108 62.5474 12.3382 62.372 12.2089 62.2428C12.0796 62.1135 11.9043 62.0408 11.7215 62.0408ZM87.5653 39.9771H83.4283C83.3377 39.977 83.2481 39.9949 83.1644 40.0295C83.0808 40.0642 83.0048 40.115 82.9407 40.179C82.8767 40.243 82.826 40.3191 82.7914 40.4027C82.7568 40.4864 82.739 40.5761 82.739 40.6666V72.3832C82.739 72.7643 83.0475 73.0727 83.4283 73.0727C83.8094 73.0727 84.1178 72.7643 84.1178 72.3832V41.3562H86.8757V72.3832C86.8757 72.7643 87.1841 73.0727 87.5653 73.0727C87.9464 73.0727 88.2548 72.7643 88.2548 72.3832V40.6666C88.2548 40.2855 87.9464 39.9771 87.5653 39.9771ZM79.2914 51.0088H76.5332C76.4427 51.0088 76.353 51.0266 76.2693 51.0612C76.1857 51.0959 76.1097 51.1467 76.0457 51.2107C75.9817 51.2748 75.9309 51.3508 75.8963 51.4345C75.8617 51.5181 75.8439 51.6078 75.844 51.6983V72.383C75.844 72.7642 76.1524 73.0726 76.5332 73.0726C76.9143 73.0726 77.2228 72.7642 77.2228 72.383V52.3879H78.6019V72.383C78.6019 72.7642 78.9103 73.0726 79.2914 73.0726C79.6726 73.0726 79.9808 72.7642 79.9806 72.383V51.6983C79.9806 51.3172 79.6726 51.0088 79.2914 51.0088ZM85.4969 34.4609C83.9751 34.4609 82.739 35.698 82.739 37.219C82.739 37.6002 83.0475 37.9086 83.4283 37.9086H87.5653C87.9464 37.9086 88.2548 37.6002 88.2548 37.219C88.2548 35.6978 87.0184 34.4609 85.4969 34.4609ZM84.3037 36.5296C84.4244 36.32 84.5983 36.1459 84.8077 36.0248C85.0172 35.9037 85.2548 35.84 85.4968 35.84C85.7387 35.84 85.9763 35.9037 86.1858 36.0248C86.3953 36.1459 86.5691 36.32 86.6899 36.5296H84.3037Z" fill="#818EA1"></path>
  <path d="M85.5045 38.6099C85.1234 38.6099 84.815 38.9183 84.815 39.2994V40.6784C84.815 41.0595 85.1234 41.3679 85.5045 41.3679C85.8857 41.3679 86.1941 41.0595 86.1941 40.6784V39.2994C86.1941 38.9183 85.8857 38.6099 85.5045 38.6099ZM87.5728 38.6099C87.1917 38.6099 86.8833 38.9183 86.8833 39.2994V40.6784C86.8833 41.0595 87.1917 41.3679 87.5728 41.3679C87.954 41.3679 88.2624 41.0595 88.2624 40.6784V39.2994C88.2624 38.9183 87.954 38.6099 87.5728 38.6099ZM83.4358 38.6099C83.3453 38.6098 83.2556 38.6277 83.172 38.6623C83.0883 38.697 83.0123 38.7478 82.9483 38.8118C82.8843 38.8758 82.8336 38.9519 82.7989 39.0355C82.7643 39.1192 82.7466 39.2089 82.7466 39.2994V40.6784C82.7466 41.0595 83.055 41.3679 83.4358 41.3679C83.817 41.3679 84.1254 41.0595 84.1254 40.6784V39.2994C84.1254 38.9183 83.817 38.6099 83.4358 38.6099ZM85.5045 33.0938C85.1234 33.0938 84.815 33.4023 84.815 33.7833V35.1624C84.815 35.5436 85.1234 35.852 85.5045 35.852C85.8857 35.852 86.1941 35.5436 86.1941 35.1624V33.7833C86.1941 33.4022 85.8857 33.0938 85.5045 33.0938ZM77.9199 46.8835C76.7792 46.8835 75.8516 47.8115 75.8516 48.9522C75.8515 49.0427 75.8693 49.1324 75.904 49.216C75.9386 49.2996 75.9894 49.3756 76.0534 49.4396C76.1174 49.5036 76.1934 49.5544 76.277 49.589C76.3606 49.6236 76.4503 49.6414 76.5408 49.6414C76.9219 49.6414 77.2303 49.333 77.2303 48.9522C77.2303 48.5724 77.5401 48.2626 77.9199 48.2626C78.2997 48.2626 78.6094 48.5724 78.6094 48.9522C78.6094 49.333 78.9179 49.6414 79.299 49.6414C79.6802 49.6414 79.9884 49.333 79.9882 48.9522C79.9882 47.8115 79.0606 46.8835 77.9199 46.8835Z" fill="#818EA1"></path>
  <path d="M85.5045 38.6099C85.1234 38.6099 84.815 38.9183 84.815 39.2994V40.6784C84.815 41.0595 85.1234 41.3679 85.5045 41.3679C85.8857 41.3679 86.1941 41.0595 86.1941 40.6784V39.2994C86.1941 38.9183 85.8857 38.6099 85.5045 38.6099ZM87.5728 38.6099C87.1917 38.6099 86.8833 38.9183 86.8833 39.2994V40.6784C86.8833 41.0595 87.1917 41.3679 87.5728 41.3679C87.954 41.3679 88.2624 41.0595 88.2624 40.6784V39.2994C88.2624 38.9183 87.954 38.6099 87.5728 38.6099ZM83.4358 38.6099C83.3453 38.6098 83.2556 38.6277 83.172 38.6623C83.0883 38.697 83.0123 38.7478 82.9483 38.8118C82.8843 38.8758 82.8336 38.9519 82.7989 39.0355C82.7643 39.1192 82.7466 39.2089 82.7466 39.2994V40.6784C82.7466 41.0595 83.055 41.3679 83.4358 41.3679C83.817 41.3679 84.1254 41.0595 84.1254 40.6784V39.2994C84.1254 38.9183 83.817 38.6099 83.4358 38.6099ZM85.5045 33.0938C85.1234 33.0938 84.815 33.4023 84.815 33.7833V35.1624C84.815 35.5436 85.1234 35.852 85.5045 35.852C85.8857 35.852 86.1941 35.5436 86.1941 35.1624V33.7833C86.1941 33.4022 85.8857 33.0938 85.5045 33.0938ZM77.9199 46.8835C76.7792 46.8835 75.8516 47.8115 75.8516 48.9522C75.8515 49.0427 75.8693 49.1324 75.904 49.216C75.9386 49.2996 75.9894 49.3756 76.0534 49.4396C76.1174 49.5036 76.1934 49.5544 76.277 49.589C76.3606 49.6236 76.4503 49.6414 76.5408 49.6414C76.9219 49.6414 77.2303 49.333 77.2303 48.9522C77.2303 48.5724 77.5401 48.2626 77.9199 48.2626C78.2997 48.2626 78.6094 48.5724 78.6094 48.9522C78.6094 49.333 78.9179 49.6414 79.299 49.6414C79.6802 49.6414 79.9884 49.333 79.9882 48.9522C79.9882 47.8115 79.0606 46.8835 77.9199 46.8835Z" fill="#818EA1"></path>
  <path d="M79.3244 49.6677C78.9433 49.6677 78.6349 49.9761 78.6349 50.3573V51.7364C78.6349 52.1176 78.9433 52.426 79.3244 52.426C79.7056 52.426 80.0138 52.1176 80.0136 51.7364V50.3573C80.0136 49.9761 79.7056 49.6677 79.3244 49.6677ZM76.5662 49.6677C76.4756 49.6677 76.386 49.6855 76.3023 49.7202C76.2187 49.7548 76.1427 49.8056 76.0787 49.8697C76.0147 49.9337 75.9639 50.0097 75.9293 50.0934C75.8947 50.1771 75.8769 50.2668 75.877 50.3573V51.7364C75.877 52.1176 76.1854 52.426 76.5662 52.426C76.9473 52.426 77.2557 52.1176 77.2557 51.7364V50.3573C77.2557 49.9761 76.9473 49.6677 76.5662 49.6677ZM77.9453 45.5313C77.5641 45.5313 77.2557 45.8393 77.2557 46.2205V47.5996C77.2557 47.9807 77.5641 48.2891 77.9453 48.2891C78.3264 48.2891 78.6349 47.9807 78.6349 47.5996V46.2205C78.6349 46.1299 78.6171 46.0402 78.5825 45.9566C78.5479 45.8729 78.4971 45.7969 78.433 45.7328C78.369 45.6688 78.2929 45.6181 78.2092 45.5835C78.1255 45.5489 78.0359 45.5311 77.9453 45.5313ZM87.5982 49.6677H83.4612C83.0804 49.6677 82.772 49.9761 82.772 50.3573C82.772 50.7384 83.0804 51.0469 83.4612 51.0469H87.5982C87.9794 51.0469 88.2878 50.7384 88.2878 50.3573C88.2878 49.9761 87.9794 49.6677 87.5982 49.6677ZM87.5982 59.321H83.4612C83.0804 59.321 82.772 59.6291 82.772 60.0102C82.772 60.3914 83.0804 60.6998 83.4612 60.6998H87.5982C87.9794 60.6998 88.2878 60.3914 88.2878 60.0102C88.2878 59.6291 87.9794 59.321 87.5982 59.321ZM79.3244 56.5628H76.5662C76.1854 56.5628 75.877 56.8712 75.877 57.2524C75.877 57.6335 76.1854 57.9419 76.5662 57.9419H79.3244C79.7056 57.9419 80.0136 57.6335 80.0136 57.2524C80.0136 56.8712 79.7056 56.5628 79.3244 56.5628ZM79.3244 62.0789H76.5662C76.4756 62.0789 76.386 62.0967 76.3023 62.1314C76.2187 62.166 76.1427 62.2168 76.0787 62.2809C76.0147 62.3449 75.9639 62.4209 75.9293 62.5046C75.8947 62.5883 75.8769 62.6779 75.877 62.7685C75.8769 62.859 75.8948 62.9486 75.9294 63.0323C75.964 63.1159 76.0148 63.1919 76.0788 63.2559C76.1428 63.3199 76.2188 63.3706 76.3024 63.4053C76.386 63.4399 76.4757 63.4577 76.5662 63.4577H79.3244C79.4149 63.4578 79.5046 63.44 79.5882 63.4054C79.6719 63.3708 79.7479 63.32 79.8119 63.256C79.8759 63.192 79.9267 63.116 79.9613 63.0323C79.9959 62.9487 80.0137 62.859 80.0136 62.7685C80.0136 62.3873 79.7056 62.0789 79.3244 62.0789ZM5.54893 77.2476C5.16778 77.2476 4.85938 77.556 4.85938 77.9372V79.3163C4.85933 79.4069 4.87714 79.4965 4.91178 79.5802C4.94642 79.6639 4.99722 79.7399 5.06126 79.8039C5.12531 79.8679 5.20134 79.9187 5.28502 79.9533C5.3687 79.9879 5.45838 80.0056 5.54893 80.0055C5.93009 80.0055 6.23849 79.6973 6.23849 79.3163V77.9372C6.23849 77.556 5.93009 77.2476 5.54893 77.2476ZM11.0649 74.4898C10.6837 74.4898 10.3753 74.7982 10.3753 75.1793V76.5584C10.3753 76.649 10.3931 76.7386 10.4278 76.8223C10.4624 76.9059 10.5132 76.9819 10.5773 77.046C10.6413 77.11 10.7173 77.1607 10.801 77.1953C10.8847 77.2299 10.9743 77.2477 11.0649 77.2476C11.4459 77.2476 11.7544 76.9391 11.7544 76.5584V75.1793C11.7544 74.7982 11.4459 74.4898 11.0649 74.4898ZM16.5808 77.2476C16.1997 77.2476 15.8913 77.556 15.8913 77.9372V79.3163C15.8912 79.4069 15.9091 79.4965 15.9437 79.5802C15.9784 79.6638 16.0292 79.7398 16.0932 79.8038C16.1572 79.8679 16.2333 79.9186 16.3169 79.9532C16.4006 79.9878 16.4903 80.0056 16.5808 80.0055C16.6714 80.0056 16.761 79.9878 16.8447 79.9532C16.9283 79.9186 17.0044 79.8678 17.0684 79.8038C17.1324 79.7398 17.1832 79.6638 17.2179 79.5802C17.2525 79.4965 17.2704 79.4069 17.2704 79.3163V77.9372C17.2704 77.556 16.962 77.2476 16.5808 77.2476ZM22.0966 74.4898C22.006 74.4897 21.9164 74.5075 21.8327 74.5422C21.749 74.5768 21.673 74.6276 21.609 74.6916C21.5449 74.7557 21.4942 74.8317 21.4596 74.9154C21.4249 74.9991 21.4071 75.0888 21.4072 75.1793V76.5584C21.4072 76.649 21.425 76.7386 21.4597 76.8223C21.4943 76.9059 21.5451 76.9819 21.6091 77.0459C21.6731 77.1099 21.7491 77.1607 21.8328 77.1953C21.9164 77.2299 22.0061 77.2477 22.0966 77.2476C22.4778 77.2476 22.7862 76.9391 22.7862 76.5584V75.1793C22.7862 74.7982 22.4778 74.4898 22.0966 74.4898ZM27.6126 77.2476C27.2314 77.2476 26.923 77.556 26.923 77.9372V79.3163C26.923 79.4069 26.9408 79.4965 26.9754 79.5802C27.0101 79.6638 27.0609 79.7398 27.1249 79.8038C27.189 79.8679 27.265 79.9186 27.3487 79.9532C27.4323 79.9878 27.522 80.0056 27.6126 80.0055C27.9937 80.0055 28.3021 79.6973 28.3021 79.3163V77.9372C28.3021 77.556 27.9937 77.2476 27.6126 77.2476ZM33.1285 74.4898C32.7473 74.4898 32.4389 74.7982 32.4389 75.1793V76.5584C32.4389 76.9392 32.7473 77.2476 33.1285 77.2476C33.5097 77.2476 33.8181 76.9391 33.8181 76.5584V75.1793C33.8181 74.7982 33.5097 74.4898 33.1285 74.4898ZM38.6444 77.2476C38.2633 77.2476 37.9549 77.556 37.9549 77.9372V79.3163C37.9549 79.6975 38.2633 80.0055 38.6444 80.0055C39.0256 80.0055 39.3338 79.6973 39.3338 79.3163V77.9372C39.3338 77.556 39.0254 77.2476 38.6444 77.2476ZM44.1604 74.4898C43.7792 74.4898 43.4708 74.7982 43.4708 75.1793V76.5584C43.4708 76.649 43.4887 76.7386 43.5233 76.8223C43.558 76.9059 43.6088 76.9819 43.6728 77.0459C43.7369 77.1099 43.8129 77.1607 43.8965 77.1953C43.9802 77.2299 44.0699 77.2477 44.1604 77.2476C44.5415 77.2476 44.85 76.9391 44.85 76.5584V75.1793C44.85 74.7982 44.5415 74.4898 44.1604 74.4898ZM49.6762 77.2476C49.5856 77.2476 49.4959 77.2654 49.4123 77.3C49.3286 77.3347 49.2526 77.3855 49.1886 77.4495C49.1246 77.5136 49.0738 77.5896 49.0392 77.6733C49.0046 77.757 48.9869 77.8467 48.987 77.9372V79.3163C48.987 79.6975 49.295 80.0055 49.6762 80.0055C50.0573 80.0055 50.3657 79.6973 50.3657 79.3163V77.9372C50.3657 77.556 50.0573 77.2476 49.6762 77.2476ZM55.1923 74.4898C54.8111 74.4898 54.5027 74.7982 54.5027 75.1793V76.5584C54.5027 76.9392 54.8111 77.2476 55.1923 77.2476C55.5734 77.2476 55.8818 76.9391 55.8818 76.5584V75.1793C55.8818 74.7982 55.5734 74.4898 55.1923 74.4898ZM60.7081 77.2476C60.3269 77.2476 60.0185 77.556 60.0185 77.9372V79.3163C60.0185 79.6975 60.3269 80.0055 60.7081 80.0055C61.0892 80.0055 61.3976 79.6973 61.3976 79.3163V77.9372C61.3976 77.556 61.0892 77.2476 60.7081 77.2476ZM66.2238 74.4898C66.1333 74.4897 66.0436 74.5076 65.96 74.5422C65.8763 74.5769 65.8003 74.6277 65.7363 74.6917C65.6723 74.7557 65.6216 74.8318 65.5869 74.9154C65.5523 74.9991 65.5346 75.0888 65.5346 75.1793V76.5584C65.5346 76.6489 65.5524 76.7386 65.587 76.8222C65.6217 76.9058 65.6724 76.9818 65.7364 77.0458C65.8004 77.1098 65.8764 77.1606 65.9601 77.1952C66.0437 77.2299 66.1333 77.2477 66.2238 77.2476C66.605 77.2476 66.9134 76.9391 66.9134 76.5584V75.1793C66.9134 74.7982 66.605 74.4898 66.2238 74.4898ZM71.74 77.2476C71.3588 77.2476 71.0504 77.556 71.0504 77.9372V79.3163C71.0504 79.6975 71.3588 80.0055 71.74 80.0055C72.1211 80.0055 72.4295 79.6973 72.4295 79.3163V77.9372C72.4295 77.556 72.1211 77.2476 71.74 77.2476ZM77.2557 74.4898C76.8746 74.4898 76.5662 74.7982 76.5662 75.1793V76.5584C76.5662 76.9392 76.8746 77.2476 77.2557 77.2476C77.6369 77.2476 77.9453 76.9391 77.9453 76.5584V75.1793C77.9453 74.7982 77.6369 74.4898 77.2557 74.4898ZM82.772 77.2476C82.3909 77.2476 82.0825 77.556 82.0825 77.9372V79.3163C82.0824 79.4069 82.1002 79.4965 82.1349 79.5802C82.1695 79.6639 82.2203 79.7399 82.2844 79.8039C82.3484 79.8679 82.4244 79.9187 82.5081 79.9533C82.5918 79.9879 82.6815 80.0056 82.772 80.0055C82.8626 80.0056 82.9522 79.9878 83.0359 79.9532C83.1195 79.9186 83.1955 79.8678 83.2595 79.8038C83.3235 79.7398 83.3743 79.6638 83.4089 79.5802C83.4435 79.4965 83.4613 79.4068 83.4612 79.3163V77.9372C83.4612 77.556 83.1532 77.2476 82.772 77.2476Z" fill="#818EA1"></path>
  <path d="M79.3244 49.6677C78.9433 49.6677 78.6349 49.9761 78.6349 50.3573V51.7364C78.6349 52.1176 78.9433 52.426 79.3244 52.426C79.7056 52.426 80.0138 52.1176 80.0136 51.7364V50.3573C80.0136 49.9761 79.7056 49.6677 79.3244 49.6677ZM76.5662 49.6677C76.4756 49.6677 76.386 49.6855 76.3023 49.7202C76.2187 49.7548 76.1427 49.8056 76.0787 49.8697C76.0147 49.9337 75.9639 50.0097 75.9293 50.0934C75.8947 50.1771 75.8769 50.2668 75.877 50.3573V51.7364C75.877 52.1176 76.1854 52.426 76.5662 52.426C76.9473 52.426 77.2557 52.1176 77.2557 51.7364V50.3573C77.2557 49.9761 76.9473 49.6677 76.5662 49.6677ZM77.9453 45.5313C77.5641 45.5313 77.2557 45.8393 77.2557 46.2205V47.5996C77.2557 47.9807 77.5641 48.2891 77.9453 48.2891C78.3264 48.2891 78.6349 47.9807 78.6349 47.5996V46.2205C78.6349 46.1299 78.6171 46.0402 78.5825 45.9566C78.5479 45.8729 78.4971 45.7969 78.433 45.7328C78.369 45.6688 78.2929 45.6181 78.2092 45.5835C78.1255 45.5489 78.0359 45.5311 77.9453 45.5313ZM87.5982 49.6677H83.4612C83.0804 49.6677 82.772 49.9761 82.772 50.3573C82.772 50.7384 83.0804 51.0469 83.4612 51.0469H87.5982C87.9794 51.0469 88.2878 50.7384 88.2878 50.3573C88.2878 49.9761 87.9794 49.6677 87.5982 49.6677ZM87.5982 59.321H83.4612C83.0804 59.321 82.772 59.6291 82.772 60.0102C82.772 60.3914 83.0804 60.6998 83.4612 60.6998H87.5982C87.9794 60.6998 88.2878 60.3914 88.2878 60.0102C88.2878 59.6291 87.9794 59.321 87.5982 59.321ZM79.3244 56.5628H76.5662C76.1854 56.5628 75.877 56.8712 75.877 57.2524C75.877 57.6335 76.1854 57.9419 76.5662 57.9419H79.3244C79.7056 57.9419 80.0136 57.6335 80.0136 57.2524C80.0136 56.8712 79.7056 56.5628 79.3244 56.5628ZM79.3244 62.0789H76.5662C76.4756 62.0789 76.386 62.0967 76.3023 62.1314C76.2187 62.166 76.1427 62.2168 76.0787 62.2809C76.0147 62.3449 75.9639 62.4209 75.9293 62.5046C75.8947 62.5883 75.8769 62.6779 75.877 62.7685C75.8769 62.859 75.8948 62.9486 75.9294 63.0323C75.964 63.1159 76.0148 63.1919 76.0788 63.2559C76.1428 63.3199 76.2188 63.3706 76.3024 63.4053C76.386 63.4399 76.4757 63.4577 76.5662 63.4577H79.3244C79.4149 63.4578 79.5046 63.44 79.5882 63.4054C79.6719 63.3708 79.7479 63.32 79.8119 63.256C79.8759 63.192 79.9267 63.116 79.9613 63.0323C79.9959 62.9487 80.0137 62.859 80.0136 62.7685C80.0136 62.3873 79.7056 62.0789 79.3244 62.0789ZM5.54893 77.2476C5.16778 77.2476 4.85938 77.556 4.85938 77.9372V79.3163C4.85933 79.4069 4.87714 79.4965 4.91178 79.5802C4.94642 79.6639 4.99722 79.7399 5.06126 79.8039C5.12531 79.8679 5.20134 79.9187 5.28502 79.9533C5.3687 79.9879 5.45838 80.0056 5.54893 80.0055C5.93009 80.0055 6.23849 79.6973 6.23849 79.3163V77.9372C6.23849 77.556 5.93009 77.2476 5.54893 77.2476ZM11.0649 74.4898C10.6837 74.4898 10.3753 74.7982 10.3753 75.1793V76.5584C10.3753 76.649 10.3931 76.7386 10.4278 76.8223C10.4624 76.9059 10.5132 76.9819 10.5773 77.046C10.6413 77.11 10.7173 77.1607 10.801 77.1953C10.8847 77.2299 10.9743 77.2477 11.0649 77.2476C11.4459 77.2476 11.7544 76.9391 11.7544 76.5584V75.1793C11.7544 74.7982 11.4459 74.4898 11.0649 74.4898ZM16.5808 77.2476C16.1997 77.2476 15.8913 77.556 15.8913 77.9372V79.3163C15.8912 79.4069 15.9091 79.4965 15.9437 79.5802C15.9784 79.6638 16.0292 79.7398 16.0932 79.8038C16.1572 79.8679 16.2333 79.9186 16.3169 79.9532C16.4006 79.9878 16.4903 80.0056 16.5808 80.0055C16.6714 80.0056 16.761 79.9878 16.8447 79.9532C16.9283 79.9186 17.0044 79.8678 17.0684 79.8038C17.1324 79.7398 17.1832 79.6638 17.2179 79.5802C17.2525 79.4965 17.2704 79.4069 17.2704 79.3163V77.9372C17.2704 77.556 16.962 77.2476 16.5808 77.2476ZM22.0966 74.4898C22.006 74.4897 21.9164 74.5075 21.8327 74.5422C21.749 74.5768 21.673 74.6276 21.609 74.6916C21.5449 74.7557 21.4942 74.8317 21.4596 74.9154C21.4249 74.9991 21.4071 75.0888 21.4072 75.1793V76.5584C21.4072 76.649 21.425 76.7386 21.4597 76.8223C21.4943 76.9059 21.5451 76.9819 21.6091 77.0459C21.6731 77.1099 21.7491 77.1607 21.8328 77.1953C21.9164 77.2299 22.0061 77.2477 22.0966 77.2476C22.4778 77.2476 22.7862 76.9391 22.7862 76.5584V75.1793C22.7862 74.7982 22.4778 74.4898 22.0966 74.4898ZM27.6126 77.2476C27.2314 77.2476 26.923 77.556 26.923 77.9372V79.3163C26.923 79.4069 26.9408 79.4965 26.9754 79.5802C27.0101 79.6638 27.0609 79.7398 27.1249 79.8038C27.189 79.8679 27.265 79.9186 27.3487 79.9532C27.4323 79.9878 27.522 80.0056 27.6126 80.0055C27.9937 80.0055 28.3021 79.6973 28.3021 79.3163V77.9372C28.3021 77.556 27.9937 77.2476 27.6126 77.2476ZM33.1285 74.4898C32.7473 74.4898 32.4389 74.7982 32.4389 75.1793V76.5584C32.4389 76.9392 32.7473 77.2476 33.1285 77.2476C33.5097 77.2476 33.8181 76.9391 33.8181 76.5584V75.1793C33.8181 74.7982 33.5097 74.4898 33.1285 74.4898ZM38.6444 77.2476C38.2633 77.2476 37.9549 77.556 37.9549 77.9372V79.3163C37.9549 79.6975 38.2633 80.0055 38.6444 80.0055C39.0256 80.0055 39.3338 79.6973 39.3338 79.3163V77.9372C39.3338 77.556 39.0254 77.2476 38.6444 77.2476ZM44.1604 74.4898C43.7792 74.4898 43.4708 74.7982 43.4708 75.1793V76.5584C43.4708 76.649 43.4887 76.7386 43.5233 76.8223C43.558 76.9059 43.6088 76.9819 43.6728 77.0459C43.7369 77.1099 43.8129 77.1607 43.8965 77.1953C43.9802 77.2299 44.0699 77.2477 44.1604 77.2476C44.5415 77.2476 44.85 76.9391 44.85 76.5584V75.1793C44.85 74.7982 44.5415 74.4898 44.1604 74.4898ZM49.6762 77.2476C49.5856 77.2476 49.4959 77.2654 49.4123 77.3C49.3286 77.3347 49.2526 77.3855 49.1886 77.4495C49.1246 77.5136 49.0738 77.5896 49.0392 77.6733C49.0046 77.757 48.9869 77.8467 48.987 77.9372V79.3163C48.987 79.6975 49.295 80.0055 49.6762 80.0055C50.0573 80.0055 50.3657 79.6973 50.3657 79.3163V77.9372C50.3657 77.556 50.0573 77.2476 49.6762 77.2476ZM55.1923 74.4898C54.8111 74.4898 54.5027 74.7982 54.5027 75.1793V76.5584C54.5027 76.9392 54.8111 77.2476 55.1923 77.2476C55.5734 77.2476 55.8818 76.9391 55.8818 76.5584V75.1793C55.8818 74.7982 55.5734 74.4898 55.1923 74.4898ZM60.7081 77.2476C60.3269 77.2476 60.0185 77.556 60.0185 77.9372V79.3163C60.0185 79.6975 60.3269 80.0055 60.7081 80.0055C61.0892 80.0055 61.3976 79.6973 61.3976 79.3163V77.9372C61.3976 77.556 61.0892 77.2476 60.7081 77.2476ZM66.2238 74.4898C66.1333 74.4897 66.0436 74.5076 65.96 74.5422C65.8763 74.5769 65.8003 74.6277 65.7363 74.6917C65.6723 74.7557 65.6216 74.8318 65.5869 74.9154C65.5523 74.9991 65.5346 75.0888 65.5346 75.1793V76.5584C65.5346 76.6489 65.5524 76.7386 65.587 76.8222C65.6217 76.9058 65.6724 76.9818 65.7364 77.0458C65.8004 77.1098 65.8764 77.1606 65.9601 77.1952C66.0437 77.2299 66.1333 77.2477 66.2238 77.2476C66.605 77.2476 66.9134 76.9391 66.9134 76.5584V75.1793C66.9134 74.7982 66.605 74.4898 66.2238 74.4898ZM71.74 77.2476C71.3588 77.2476 71.0504 77.556 71.0504 77.9372V79.3163C71.0504 79.6975 71.3588 80.0055 71.74 80.0055C72.1211 80.0055 72.4295 79.6973 72.4295 79.3163V77.9372C72.4295 77.556 72.1211 77.2476 71.74 77.2476ZM77.2557 74.4898C76.8746 74.4898 76.5662 74.7982 76.5662 75.1793V76.5584C76.5662 76.9392 76.8746 77.2476 77.2557 77.2476C77.6369 77.2476 77.9453 76.9391 77.9453 76.5584V75.1793C77.9453 74.7982 77.6369 74.4898 77.2557 74.4898ZM82.772 77.2476C82.3909 77.2476 82.0825 77.556 82.0825 77.9372V79.3163C82.0824 79.4069 82.1002 79.4965 82.1349 79.5802C82.1695 79.6639 82.2203 79.7399 82.2844 79.8039C82.3484 79.8679 82.4244 79.9187 82.5081 79.9533C82.5918 79.9879 82.6815 80.0056 82.772 80.0055C82.8626 80.0056 82.9522 79.9878 83.0359 79.9532C83.1195 79.9186 83.1955 79.8678 83.2595 79.8038C83.3235 79.7398 83.3743 79.6638 83.4089 79.5802C83.4435 79.4965 83.4613 79.4068 83.4612 79.3163V77.9372C83.4612 77.556 83.1532 77.2476 82.772 77.2476Z" fill="#818EA1"></path>
</svg>